<?xml version="1.0" encoding="UTF-8"?>
<svg version="1.1" xmlns="http://www.w3.org/2000/svg" width="512" height="512">
<path d="M0 0 C2.19235991 1.65970909 4.23625333 3.40482459 6.28125 5.2421875 C7.09851563 5.91894531 7.91578125 6.59570312 8.7578125 7.29296875 C25.4961359 21.52812898 34.61433697 41.69308013 37.28125 63.2421875 C37.35848923 65.65653623 37.38927347 68.07271957 37.37890625 70.48828125 C37.37678383 71.47224632 37.37678383 71.47224632 37.37461853 72.47608948 C37.36908031 74.54400452 37.35654002 76.61180592 37.34375 78.6796875 C37.33872699 80.09309738 37.3341655 81.50650898 37.33007812 82.91992188 C37.31913126 86.36071318 37.30191038 89.80143922 37.28125 93.2421875 C39.15490234 93.2107666 39.15490234 93.2107666 41.06640625 93.17871094 C45.77787441 93.10535888 50.4892941 93.06004771 55.20117188 93.02246094 C57.22599828 93.00255935 59.25076889 92.97542804 61.27539062 92.94042969 C82.3199305 92.58621466 100.05008228 94.91408459 116.06542969 109.86157227 C129.97195633 123.51829479 133.18227022 140.98175183 134.1328125 159.71484375 C134.19657074 160.87737167 134.26032898 162.0398996 134.32601929 163.23765564 C134.45866433 165.68551958 134.58789524 168.13357069 134.71386719 170.58178711 C134.90448637 174.27055851 135.10762457 177.95848035 135.3125 181.64648438 C136.0084185 194.52358061 136.49218975 207.346098 136.28125 220.2421875 C137.40007568 220.37923096 137.40007568 220.37923096 138.54150391 220.51904297 C169.05543646 224.48702289 197.2497235 243.71545277 215.98046875 267.5625 C225.79389744 281.22936928 232.79807331 296.0653916 237.28125 312.2421875 C237.6215625 313.43070312 237.961875 314.61921875 238.3125 315.84375 C242.58566326 334.00469384 242.40880009 357.33460727 237.28125 375.2421875 C237.08789062 375.93989258 236.89453125 376.63759766 236.6953125 377.35644531 C227.88626008 408.50079575 207.84543382 434.4121657 180.28125 451.2421875 C179.66137207 451.62101074 179.04149414 451.99983398 178.40283203 452.39013672 C171.35125591 456.60683299 164.11567412 459.89216156 156.34375 462.5546875 C155.67746582 462.78518799 155.01118164 463.01568848 154.32470703 463.25317383 C151.99398419 464.00141225 149.65020393 464.62439666 147.28125 465.2421875 C145.85849227 465.62401231 145.85849227 465.62401231 144.40699196 466.01355076 C130.44459352 469.18522115 116.21893048 468.67788383 101.98386908 468.64902055 C98.01109125 468.64424808 94.03835994 468.65683416 90.06559753 468.66703796 C82.30393869 468.68415003 74.54236107 468.68508214 66.78068827 468.67982506 C60.46872959 468.67576919 54.15679475 468.67724364 47.84483719 468.68257332 C46.94350402 468.68332174 46.04217086 468.68407016 45.11352456 468.68484126 C43.28201034 468.68637286 41.45049612 468.68791121 39.61898191 468.68945623 C22.48227508 468.70315288 5.34561404 468.69776276 -11.79109173 468.68627102 C-27.44582239 468.67633364 -43.10043495 468.68929308 -58.75514741 468.71320521 C-74.86293058 468.73762257 -90.9706588 468.7471981 -107.0784601 468.74055248 C-116.10851058 468.73706715 -125.1384702 468.73924735 -134.16850662 468.75680351 C-141.85221157 468.77155818 -149.53576159 468.77211799 -157.2194636 468.7547326 C-161.13422134 468.74624852 -165.04870269 468.74400923 -168.96344566 468.75938416 C-172.55600749 468.77331848 -176.14805841 468.7683577 -179.74059133 468.74914492 C-181.63626783 468.74366028 -183.53197094 468.75758275 -185.42759669 468.77249902 C-201.6299143 468.63507158 -215.95643215 463.33664206 -227.59375 451.9296875 C-240.54821891 438.28555621 -244.97256844 422.67515013 -244.71875 404.2421875 C-244.59650276 400.56484562 -244.4076029 396.89276325 -244.20744324 393.21891785 C-244.1523902 392.16584059 -244.09733717 391.11276332 -244.04061586 390.02777463 C-243.85694773 386.52902301 -243.66910289 383.03050903 -243.48120117 379.53198242 C-243.34791942 377.01124718 -243.21486362 374.49049998 -243.08201599 371.96974182 C-242.6837388 364.43228465 -242.28043553 356.89510243 -241.87617323 349.35796425 C-241.68540427 345.79890314 -241.49524427 342.2398095 -241.30501747 338.68071938 C-240.67171747 326.8360344 -240.03702113 314.99142559 -239.39806652 303.14704418 C-239.23273579 300.08199801 -239.06740835 297.01695166 -238.90209961 293.9519043 C-238.86101793 293.19021855 -238.81993626 292.4285328 -238.77760968 291.64376567 C-238.11228403 279.30326418 -237.45658562 266.96227107 -236.80493268 254.62104078 C-236.13418594 241.92108875 -235.45496726 229.22161202 -234.76747686 216.52255517 C-234.3823162 209.40423247 -234.00076645 202.28575785 -233.62868309 195.16673851 C-233.27859917 188.46925696 -232.91696661 181.77249568 -232.54769325 175.07604027 C-232.41442072 172.6261966 -232.28493184 170.17614354 -232.15962219 167.72587967 C-230.92451942 143.65865406 -228.36758016 123.17965403 -209.71875 106.2421875 C-197.5066011 96.82333347 -184.24305404 92.87906061 -168.99609375 93.046875 C-168.01000626 93.0497049 -167.02391876 93.05253479 -166.00794983 93.05545044 C-162.89058763 93.06655245 -159.77352383 93.09163805 -156.65625 93.1171875 C-154.52930105 93.12723021 -152.40234756 93.13635379 -150.27539062 93.14453125 C-145.0897306 93.16645902 -139.90429071 93.20091904 -134.71875 93.2421875 C-134.73446045 92.38165771 -134.7501709 91.52112793 -134.76635742 90.63452148 C-134.81826511 87.36346104 -134.85546974 84.09285384 -134.88354492 80.8215332 C-134.89839771 79.42042018 -134.91868556 78.01935155 -134.94506836 76.6184082 C-135.38820424 52.43709141 -128.28648003 30.30179844 -111.71875 12.2421875 C-82.23311808 -18.00639075 -35.50457204 -22.95554227 0 0 Z M-93.53125 39.5546875 C-105.42499405 55.62807274 -103.71875 73.59430788 -103.71875 93.2421875 C-67.41875 93.2421875 -31.11875 93.2421875 6.28125 93.2421875 C6.85706574 60.10916255 6.85706574 60.10916255 -9.37109375 33.4921875 C-21.27913163 22.07949229 -34.37640022 16.8252901 -50.77709961 16.87426758 C-68.4983444 17.25671441 -82.39515569 26.24451838 -93.53125 39.5546875 Z M-192.71875 133.2421875 C-199.00381233 141.40574612 -199.99240739 149.9595866 -200.4974823 159.9763031 C-200.55706645 161.03442847 -200.6166506 162.09255384 -200.67804033 163.18274361 C-200.87506068 166.71578285 -201.06094378 170.24931757 -201.24682617 173.78295898 C-201.38602389 176.32126371 -201.52588753 178.85953198 -201.66636658 181.39776611 C-202.0060372 187.56898072 -202.33840114 193.74055106 -202.66718193 199.91235428 C-202.93465791 204.93035579 -203.20522768 209.94818171 -203.4779911 214.96589851 C-203.5168639 215.68103465 -203.55573671 216.39617079 -203.59578747 217.13297771 C-203.67478063 218.58593727 -203.75378132 220.03889641 -203.83278946 221.49185515 C-204.57271665 235.10563214 -205.30313679 248.71990639 -206.03024802 262.33437306 C-206.65377565 274.0052977 -207.28525646 285.67576964 -207.92260742 297.34594727 C-208.66342488 310.91072904 -209.39943283 324.47575748 -210.12771779 338.04121834 C-210.2054583 339.48903277 -210.28320442 340.9368469 -210.36095619 342.38466072 C-210.39920447 343.09693897 -210.43745275 343.80921722 -210.47686007 344.54307966 C-210.74615724 349.55200072 -211.018854 354.56073002 -211.29286766 359.56939507 C-211.66189254 366.31676363 -212.02299277 373.06451236 -212.37882423 379.81259155 C-212.51050783 382.2874572 -212.64470562 384.76219055 -212.78161621 387.23677254 C-212.96826676 390.61788711 -213.14575552 393.99936444 -213.32096863 397.38108826 C-213.37699051 398.35717133 -213.43301238 399.33325441 -213.49073189 400.33891577 C-214.03179688 411.21157952 -213.38333718 420.7908521 -205.890625 429.32421875 C-198.82582771 435.93008236 -191.66662922 437.69992836 -182.25280762 437.60295105 C-181.33125649 437.60551432 -180.40970536 437.6080776 -179.46022844 437.61071855 C-176.38932012 437.61563822 -173.31890949 437.59919344 -170.24804688 437.58276367 C-168.03999849 437.58191701 -165.83194926 437.58239331 -163.62390137 437.58409119 C-157.64102056 437.58495102 -151.65832062 437.56732691 -145.6754818 437.54636931 C-139.41879572 437.52760073 -133.16210539 437.52585192 -126.90539551 437.52229309 C-116.40760383 437.51403171 -105.90986799 437.49529997 -95.41210938 437.46850586 C-84.6022169 437.44094386 -73.79234243 437.41972078 -62.98242188 437.40698242 C-62.31543665 437.40619425 -61.64845143 437.40540608 -60.96125454 437.40459403 C-57.61498776 437.40067875 -54.26872086 437.39689443 -50.92245388 437.39315832 C-23.18783982 437.36181052 4.54670043 437.30905098 32.28125 437.2421875 C31.35263817 436.13861982 30.42105683 435.03755057 29.48828125 433.9375 C28.96983643 433.32406738 28.4513916 432.71063477 27.91723633 432.07861328 C26.34683177 430.31580429 24.70481481 428.71504868 22.96875 427.1171875 C1.3781277 405.62126091 -8.39975877 373.18406845 -9.03125 343.4296875 C-7.95236627 308.77054756 4.87098392 277.02013209 29.87207031 252.69433594 C51.23927097 232.83571427 77.03623587 223.80582621 105.28125 219.2421875 C105.57592402 206.53399831 104.80225649 193.86611315 104.109375 181.18188477 C103.90582149 177.42177197 103.7144017 173.66116125 103.5234375 169.90039062 C103.39396838 167.4869394 103.26378492 165.07352636 103.1328125 162.66015625 C103.07751373 161.54746872 103.02221497 160.43478119 102.96524048 159.28837585 C102.33089337 148.11500576 100.91891458 139.80835249 93.28125 131.2421875 C85.88807394 125.03771818 77.96654708 123.93488602 68.62890625 124.046875 C67.27870644 124.05111984 67.27870644 124.05111984 65.90122986 124.05545044 C63.0485968 124.06657472 60.19628689 124.09166467 57.34375 124.1171875 C55.40039518 124.12722733 53.45703541 124.13635142 51.51367188 124.14453125 C46.76940824 124.16648862 42.02538376 124.20096449 37.28125 124.2421875 C37.26666748 125.54365723 37.25208496 126.84512695 37.23706055 128.18603516 C37.17896066 133.02810742 37.10172809 137.86972035 37.01879883 142.71142578 C36.98560451 144.80444874 36.95755555 146.89756003 36.93481445 148.99072266 C36.90116769 152.00461362 36.84884607 155.01769913 36.79296875 158.03125 C36.78657883 158.96272858 36.7801889 159.89420715 36.77360535 160.85391235 C36.62966571 167.25646163 35.60607596 171.63556445 31.21875 176.5546875 C27.02639162 178.96306359 23.08941081 179.47297922 18.28125 179.2421875 C14.78125 177.8046875 14.78125 177.8046875 12.28125 176.2421875 C11.62125 176.2421875 10.96125 176.2421875 10.28125 176.2421875 C1.6834545 159.61978287 6.81824357 148.40689824 6.28125 124.2421875 C-30.01875 124.2421875 -66.31875 124.2421875 -103.71875 124.2421875 C-104.04875 139.0921875 -104.37875 153.9421875 -104.71875 169.2421875 C-105.70875 170.8921875 -106.69875 172.5421875 -107.71875 174.2421875 C-107.71875 174.9021875 -107.71875 175.5621875 -107.71875 176.2421875 C-113.84657223 178.80631169 -119.20715939 180.24951994 -125.71875 178.2421875 C-129.99616117 175.86584796 -132.35139906 172.91763313 -133.71875 168.2421875 C-134.04491151 164.87311464 -134.09108991 161.51201894 -134.1328125 158.12890625 C-134.15217865 157.15935501 -134.1715448 156.18980377 -134.1914978 155.19087219 C-134.25112436 152.10389922 -134.2976114 149.01688862 -134.34375 145.9296875 C-134.38194534 143.83266632 -134.42099798 141.73566056 -134.4609375 139.63867188 C-134.55681209 134.50663619 -134.64090577 129.37452707 -134.71875 124.2421875 C-140.35631289 124.14248229 -145.99335 124.07032783 -151.6315918 124.02246094 C-153.54509434 124.00248331 -155.45853692 123.97529151 -157.37182617 123.94042969 C-176.71835763 123.44394857 -176.71835763 123.44394857 -192.71875 133.2421875 Z M46.65112305 279.38867188 C29.73871643 297.27267189 21.32943326 320.74099871 21.28125 345.2421875 C21.99461476 368.41589493 30.6706691 390.10659425 46.28125 407.2421875 C47.19970703 408.28246094 47.19970703 408.28246094 48.13671875 409.34375 C62.43202399 424.64490828 84.64889337 436.30607265 105.75952148 437.36669922 C135.20367424 438.1845218 159.12096151 431.4710747 181.28125 411.2421875 C199.01365564 394.00722559 209.03093848 370.93659059 209.75415039 346.28466797 C209.98026972 320.37668922 201.39427685 297.60599823 183.55859375 278.55078125 C165.32787952 260.06990284 141.73148355 249.81655388 115.76953125 249.15234375 C89.04904584 249.84055334 65.4867242 260.34836914 46.65112305 279.38867188 Z " fill="#6639B7" transform="translate(256.71875,28.7578125)"/>
<path d="M0 0 C3.87294968 2.73792011 5.86917973 5.98189289 7.1875 10.5 C7.66709738 16.0118678 7.56606671 21.47405742 7.4375 27 C7.41740494 28.50518458 7.39915948 30.01039505 7.3828125 31.515625 C7.33905298 35.17762737 7.27019216 38.83864578 7.1875 42.5 C8.15051025 42.47905273 9.11352051 42.45810547 10.10571289 42.43652344 C13.70435512 42.36371058 17.30293323 42.31805203 20.90209961 42.28027344 C22.45494565 42.2602513 24.00771719 42.23302483 25.56030273 42.19824219 C27.80210832 42.1493039 30.04291093 42.12693832 32.28515625 42.109375 C32.97086197 42.08872986 33.65656769 42.06808472 34.36305237 42.04681396 C39.8120283 42.04432021 42.78896829 43.53223675 47.1875 46.5 C50.0528495 49.98294363 51.09012002 53.6931373 51.625 58.125 C50.93992629 63.40985436 49.18649694 66.840734 45.1875 70.3125 C40.71707389 73.5721857 37.21706772 73.63779073 31.89453125 73.59765625 C30.83548836 73.59553383 30.83548836 73.59553383 29.75505066 73.59336853 C27.50332374 73.58777764 25.25169679 73.57522688 23 73.5625 C21.47200665 73.55748382 19.94401173 73.55292112 18.41601562 73.54882812 C14.67313865 73.5378112 10.93033627 73.52055287 7.1875 73.5 C7.20321045 74.4379541 7.2189209 75.3759082 7.23510742 76.34228516 C7.28641965 79.84234205 7.32393872 83.3419957 7.35229492 86.84228516 C7.36732543 88.35341727 7.38775564 89.86450618 7.41381836 91.37548828 C7.45045689 93.55512187 7.46728338 95.73417575 7.48046875 97.9140625 C7.4961792 99.2232666 7.51188965 100.5324707 7.52807617 101.88134766 C7.10176715 106.41091922 5.76734045 109.76793534 2.6875 113.14453125 C-2.26101494 116.99767179 -5.54125513 118.01403646 -11.8125 117.5 C-17.35190214 115.78443889 -20.09677816 113.65966603 -22.96199036 108.49327087 C-24.3444032 105.25342137 -24.30708861 102.05069332 -24.203125 98.59765625 C-24.19746521 97.8750914 -24.19180542 97.15252655 -24.18597412 96.4080658 C-24.16378257 94.12550414 -24.11362549 91.84457802 -24.0625 89.5625 C-24.04241244 88.00458014 -24.02416564 86.4466354 -24.0078125 84.88867188 C-23.9639753 81.0918285 -23.89507421 77.29619043 -23.8125 73.5 C-24.73998047 73.52094727 -25.66746094 73.54189453 -26.62304688 73.56347656 C-30.09710829 73.63205499 -33.57044011 73.68199327 -37.04492188 73.71972656 C-38.5424339 73.73971919 -40.03986908 73.76692299 -41.53710938 73.80175781 C-57.14968378 74.15564283 -57.14968378 74.15564283 -63.8125 69.5 C-67.4251861 65.30126721 -68.46631709 61.21917202 -68.203125 55.7109375 C-67.39247211 51.12264216 -65.20748863 47.76817148 -61.75 44.625 C-57.66472794 42.25290654 -53.87249408 42.36893838 -49.30078125 42.40234375 C-48.57255661 42.4037587 -47.84433197 42.40517365 -47.09403992 42.40663147 C-44.77098461 42.41222341 -42.44802612 42.42477438 -40.125 42.4375 C-38.54882952 42.44251604 -36.97265752 42.44707877 -35.39648438 42.45117188 C-31.53511902 42.4621902 -27.67382592 42.47944926 -23.8125 42.5 C-23.82821045 41.53175293 -23.8439209 40.56350586 -23.86010742 39.56591797 C-23.91463985 35.95418706 -23.94893419 32.34249215 -23.97729492 28.73046875 C-23.99232869 27.17083606 -24.01276135 25.61124528 -24.03881836 24.05175781 C-24.07544211 21.80262884 -24.09228021 19.55406153 -24.10546875 17.3046875 C-24.12095261 16.6138205 -24.13643646 15.92295349 -24.15238953 15.21115112 C-24.15398584 10.55990948 -23.24839341 7.45101983 -20.8125 3.5 C-14.95003821 -1.92277715 -7.39331627 -3.62480085 0 0 Z " fill="#663AB7" transform="translate(380.8125,314.5)"/>
</svg>
