<?xml version="1.0" encoding="UTF-8"?>
<svg version="1.1" xmlns="http://www.w3.org/2000/svg" width="512" height="512">
<path d="M0 0 C0.7767681 -0.00453111 1.55353621 -0.00906223 2.35384274 -0.01373065 C4.94697515 -0.02635339 7.53989697 -0.02475568 10.13305664 -0.02310181 C11.99610666 -0.02908824 13.8591542 -0.03589406 15.72219849 -0.04345703 C20.77581718 -0.061109 25.82936813 -0.06581198 30.88301468 -0.0670886 C34.04065911 -0.06851081 37.19828635 -0.07278166 40.35592651 -0.07808304 C51.37246799 -0.09657817 62.38896109 -0.10475399 73.40551758 -0.10317993 C83.67458812 -0.10197754 93.94344882 -0.12310047 104.21246624 -0.15466726 C113.03130171 -0.1808103 121.85006853 -0.19154811 130.66894245 -0.19026911 C135.93520298 -0.18975905 141.20127685 -0.19546719 146.46749878 -0.21662521 C151.41863433 -0.23597521 156.36940446 -0.23615425 161.32055283 -0.22159195 C163.13700773 -0.21949897 164.95348533 -0.22423379 166.76990128 -0.23631287 C169.25083984 -0.25174208 171.73051458 -0.24247353 174.21142578 -0.22705078 C174.92913619 -0.23733791 175.6468466 -0.24762503 176.38630581 -0.25822389 C181.41229787 -0.18923773 184.21458403 1.15260317 188.10571289 4.26742554 C191.73404952 8.08672726 192.41571747 11.1502156 192.60571289 16.26742554 C192.41571747 21.38463548 191.73404952 24.44812382 188.10571289 28.26742554 C183.57041141 31.87696517 180.14671468 32.84412673 174.47476196 32.7484436 C173.35226234 32.75357015 173.35226234 32.75357015 172.20708597 32.75880027 C169.7101721 32.76536672 167.21434341 32.74342469 164.7175293 32.7215271 C162.9235639 32.72039835 161.12959665 32.72103302 159.33563232 32.72329712 C154.47234406 32.72444412 149.60945094 32.70093698 144.74625444 32.67300129 C139.66137225 32.64798538 134.57648086 32.64564548 129.49154663 32.64089966 C119.86559923 32.62847046 110.23983369 32.59564953 100.61396635 32.5555017 C89.65396468 32.51078233 78.6939543 32.48879652 67.7338841 32.46871996 C45.19103633 32.42691687 22.64843784 32.35356511 0.10571289 32.26742554 C0.10571289 53.38742554 0.10571289 74.50742554 0.10571289 96.26742554 C5.5876123 96.24647827 11.06951172 96.22553101 16.7175293 96.20394897 C34.80645477 96.1377433 52.89538493 96.09331215 70.9843998 96.06017685 C81.95442503 96.03954812 92.92433552 96.01142149 103.89428711 95.96566772 C113.45525354 95.92580958 123.01613688 95.89999498 132.57718408 95.89107156 C137.64011889 95.8858551 142.70281595 95.87358792 147.76567459 95.84450531 C152.5312063 95.81735246 157.29640237 95.80898032 162.06200409 95.81499481 C163.81073963 95.81389452 165.55948642 95.80593983 167.30815506 95.79060364 C169.69743553 95.77067727 172.08545174 95.77549529 174.47476196 95.78640747 C175.1654375 95.7747561 175.85611305 95.76310474 176.56771815 95.7511003 C181.51641178 95.81211729 184.27214778 97.21638136 188.10571289 100.26742554 C191.73404952 104.08672726 192.41571747 107.1502156 192.60571289 112.26742554 C192.41571747 117.38463548 191.73404952 120.44812382 188.10571289 124.26742554 C183.57041791 127.87695999 180.14674879 128.84414912 174.47476196 128.7484436 C173.72822357 128.75186768 172.98168518 128.75529175 172.21252441 128.75881958 C169.71379892 128.76541809 167.21615607 128.74338606 164.7175293 128.7215271 C162.89455894 128.72030129 161.07158668 128.72083653 159.24861717 128.72298813 C154.37163232 128.72389029 149.49504091 128.70072595 144.6181488 128.67254639 C140.04001643 128.64974776 135.4619792 128.64869291 130.88378906 128.64584351 C117.49937833 128.62486347 104.11504063 128.56901874 90.73071289 128.51742554 C60.82446289 128.43492554 30.91821289 128.35242554 0.10571289 128.26742554 C0.10571289 191.62742554 0.10571289 254.98742554 0.10571289 320.26742554 C147.94571289 320.26742554 295.78571289 320.26742554 448.10571289 320.26742554 C448.10571289 281.32742554 448.10571289 242.38742554 448.10571289 202.26742554 C453.27812668 194.50880485 453.27812668 194.50880485 458.10571289 192.26742554 C463.70548409 191.51361018 468.44071281 191.49438978 473.60571289 193.89242554 C478.30102764 198.35297455 480.30680364 201.20439444 480.61364746 207.70510864 C480.63737229 209.92204539 480.63902488 212.13928486 480.62329102 214.35629272 C480.63380493 216.17693741 480.63380493 216.17693741 480.64453125 218.03436279 C480.65909324 221.35310751 480.65571652 224.67085109 480.64301491 227.98953915 C480.63285213 231.47355889 480.6422905 234.95753732 480.64855957 238.44155884 C480.65583037 244.29570136 480.64626741 250.14964185 480.62719727 256.00375366 C480.60547007 262.75099153 480.61245153 269.49774508 480.63450289 276.24497104 C480.65272199 282.05415928 480.6551824 287.86320263 480.64474821 293.67241025 C480.63854358 297.1346308 480.63759236 300.59662469 480.65089417 304.05883026 C480.66471562 307.92640109 480.64549717 311.79344104 480.62329102 315.66098022 C480.63138794 316.79379425 480.63948486 317.92660828 480.64782715 319.09375 C480.54758815 328.56069669 478.39180398 336.6877472 471.80883789 343.73617554 C464.83064219 350.01014966 457.50094726 352.57765593 448.14610577 352.52469444 C446.96465764 352.52995355 446.96465764 352.52995355 445.75934187 352.53531891 C443.1159954 352.54463428 440.47286919 352.53970924 437.82951355 352.53485107 C435.91684026 352.53858726 434.00416849 352.54318865 432.09149915 352.54858172 C426.83208305 352.56083097 421.57273047 352.56054898 416.31330335 352.55819297 C410.64241704 352.55778529 404.97155123 352.56881924 399.30067444 352.57830811 C388.1891724 352.59492946 377.07769157 352.60041816 365.96617814 352.60153286 C356.93559734 352.60248276 347.90502355 352.60659017 338.87444496 352.61293411 C317.4446199 352.62768242 296.01480176 352.63998352 274.58497143 352.638937 C273.89964733 352.63890584 273.21432323 352.63887468 272.50823174 352.63884258 C269.03472949 352.63867637 265.56122725 352.63847828 262.08772501 352.63827316 C261.39787582 352.63823327 260.70802663 352.63819338 259.99727292 352.63815228 C258.6022298 352.63807141 257.20718668 352.63798781 255.81214356 352.6379015 C234.10715746 352.63667597 212.40223384 352.65168961 190.69726562 352.67904663 C166.31142691 352.70976997 141.92563968 352.72695365 117.53977853 352.72512019 C104.62809016 352.72445577 91.71647227 352.72997079 78.80480003 352.75147629 C67.81228971 352.76966773 56.81988181 352.77405212 45.82736298 352.76045744 C40.21817153 352.75391765 34.60917668 352.75384725 29.00000381 352.77116394 C23.86472805 352.78685467 18.72980543 352.78407181 13.59453849 352.76659568 C11.73723331 352.76351698 9.87990203 352.76719078 8.02262761 352.77831583 C-9.71226115 352.87750814 -9.71226115 352.87750814 -16.89428711 348.26742554 C-17.70381836 347.79820679 -18.51334961 347.32898804 -19.34741211 346.84555054 C-25.94018302 341.97263291 -29.8056405 336.21574204 -31.89428711 328.26742554 C-32.19511651 324.20289894 -32.17260422 320.14631187 -32.16171265 316.07217407 C-32.16624376 314.83270326 -32.17077487 313.59323246 -32.17544329 312.31620193 C-32.18590581 308.8829162 -32.18741446 305.44984015 -32.18505454 302.0165534 C-32.18464602 298.31089627 -32.19568888 294.60527027 -32.20516968 290.89962769 C-32.22177349 283.64195377 -32.22727896 276.38431235 -32.22839443 269.12662104 C-32.22934526 263.22581507 -32.2334573 257.32501981 -32.23979568 251.42421722 C-32.25740691 234.68770868 -32.26663482 217.95122576 -32.26513474 201.21470788 C-32.26505482 200.31268088 -32.26497491 199.41065388 -32.26489258 198.48129272 C-32.26481082 197.57816195 -32.26472906 196.67503117 -32.26464482 195.74453279 C-32.26383209 181.11140975 -32.28296659 166.47838968 -32.31116931 151.84529641 C-32.33991117 136.81362588 -32.35370887 121.78200555 -32.35198176 106.75030684 C-32.35131828 98.31379202 -32.35679219 89.87738513 -32.37833786 81.44089508 C-32.39656687 74.25713001 -32.40088297 67.0735218 -32.38731901 59.8897436 C-32.3807978 56.22667122 -32.3806411 52.56389961 -32.39802551 48.90085602 C-32.4167047 44.92396937 -32.40417938 40.94751973 -32.38876343 36.97061157 C-32.39905055 35.82098442 -32.40933768 34.67135727 -32.41993654 33.48689294 C-32.33873367 23.99459452 -30.19880506 15.86683365 -23.59741211 8.79867554 C-16.64427177 2.54722826 -9.32359121 -0.04023498 0 0 Z " fill="#6639B7" transform="translate(31.894287109375,127.73257446289063)"/>
<path d="M0 0 C1.07514862 0.46799011 2.15029724 0.93598022 3.25802612 1.41815186 C6.78021698 2.95653378 10.28817953 4.52486316 13.796875 6.09375 C16.25670355 7.1750916 18.71724002 8.25459583 21.17919922 9.33105469 C25.01911755 11.0115528 28.85805665 12.69412784 32.69247437 14.387146 C41.92335014 18.46135584 51.18820645 22.44936828 60.4765625 26.390625 C61.77232727 26.94117503 63.06806316 27.49179301 64.36376953 28.04248047 C69.3598672 30.16530013 74.35639293 32.2870775 79.35559082 34.40258789 C82.79943224 35.86161056 86.23988813 37.32835326 89.6796875 38.796875 C90.69594208 39.22506531 91.71219666 39.65325562 92.75924683 40.09442139 C100.34674244 43.34512752 106.44729302 46.06575018 110.546875 53.59375 C111.10248009 56.61358926 111.08424693 59.56666664 111.04858398 62.63061523 C111.05668846 63.96639618 111.05668846 63.96639618 111.06495667 65.3291626 C111.07744736 68.27056292 111.06092781 71.21098343 111.04296875 74.15234375 C111.04312396 76.21859284 111.0446166 78.28484222 111.04737854 80.35108948 C111.04876349 84.69130265 111.03620644 89.03118587 111.01342773 93.37133789 C110.98534512 98.86647077 110.98769621 104.36104315 111.00051785 109.85621548 C111.00757057 114.13349464 110.99957332 118.41065051 110.98726082 122.68791389 C110.98281709 124.7091836 110.98234573 126.73046692 110.98632622 128.75173759 C111.02188702 162.76101101 104.77845024 195.53407439 88.546875 225.59375 C87.98097656 226.65335938 87.41507813 227.71296875 86.83203125 228.8046875 C79.78987212 241.43086458 70.50633038 252.20830995 60.546875 262.59375 C60.04285156 263.12500488 59.53882813 263.65625977 59.01953125 264.20361328 C51.10467939 272.51075362 42.75087493 279.75655947 33.546875 286.59375 C32.53197998 287.35921143 32.53197998 287.35921143 31.49658203 288.14013672 C20.65738315 296.29992732 9.44349458 303.57856873 -2.31176758 310.35131836 C-3.68375452 311.14735548 -5.04667364 311.95936046 -6.3972168 312.79125977 C-12.25139777 316.34510133 -16.76240869 316.96834665 -23.453125 315.59375 C-29.15321674 313.29539625 -34.30978227 309.91926812 -39.453125 306.59375 C-40.47277344 305.94792969 -41.49242187 305.30210937 -42.54296875 304.63671875 C-45.55287373 302.67553238 -48.50463896 300.64612754 -51.453125 298.59375 C-52.80728197 297.66665251 -54.16144932 296.73957017 -55.515625 295.8125 C-64.61254262 289.53622087 -73.15479407 282.88693099 -81.453125 275.59375 C-82.48566406 274.7275 -82.48566406 274.7275 -83.5390625 273.84375 C-121.00088286 242.23039949 -140.48501649 199.55578682 -145.23804283 151.26918793 C-145.57140361 147.12246544 -145.61686215 142.99137596 -145.63012695 138.83300781 C-145.63669815 137.9145961 -145.64326935 136.99618439 -145.65003967 136.04994202 C-145.66955159 133.04891859 -145.6813777 130.04794434 -145.69140625 127.046875 C-145.69548178 126.01544121 -145.6995573 124.98400742 -145.70375633 123.92131805 C-145.72451038 118.47440295 -145.73886465 113.02751233 -145.74829102 107.58056641 C-145.75940722 101.96280197 -145.79389718 96.34542794 -145.83346272 90.72780228 C-145.85958701 86.39550029 -145.86797852 82.06329272 -145.87157249 77.73091888 C-145.8764396 75.65928218 -145.88805708 73.58764973 -145.90661049 71.51609039 C-145.93094 68.62271144 -145.93004961 65.73036383 -145.9230957 62.83691406 C-145.94231079 61.56035698 -145.94231079 61.56035698 -145.96191406 60.25801086 C-145.91498402 54.89753822 -145.04609441 51.82350444 -141.453125 47.59375 C-136.16544842 43.05949245 -129.18571693 40.56857906 -122.828125 37.91796875 C-121.79207123 37.47911346 -120.75601746 37.04025818 -119.68856812 36.58810425 C-116.27957479 35.14569599 -112.86661457 33.71298217 -109.453125 32.28125 C-105.21608744 30.49796408 -100.97997833 28.71248749 -96.74470139 26.92502403 C-95.48784065 26.3946953 -94.2308433 25.86469022 -92.97371292 25.33500099 C-83.87544069 21.50009883 -74.81799181 17.5806104 -65.78508759 13.59429741 C-61.97920042 11.9170323 -58.16833457 10.2510958 -54.35775375 8.58452702 C-51.30394958 7.24743332 -48.25558508 5.90014856 -45.21240234 4.53890991 C-41.80886679 3.01766209 -38.39438633 1.5239657 -34.9765625 0.03515625 C-33.98490082 -0.41683136 -32.99323914 -0.86881897 -31.9715271 -1.33450317 C-20.35955015 -6.32149832 -11.29215232 -5.1436141 0 0 Z M-23.23364258 31.54296875 C-24.73785011 32.1870443 -24.73785011 32.1870443 -26.27244568 32.84413147 C-27.36976517 33.31838058 -28.46708466 33.7926297 -29.59765625 34.28125 C-30.73908585 34.77124985 -31.88051544 35.26124969 -33.05653381 35.76609802 C-36.15362302 37.09653508 -39.24929037 38.43018217 -42.3443222 39.7653923 C-45.53659144 41.14171924 -48.73056357 42.51408311 -51.92431641 43.88696289 C-58.26353851 46.61288971 -64.60057509 49.34386338 -70.93670654 52.07696533 C-74.18951763 53.48004464 -77.4426105 54.88246815 -80.69580078 56.28466797 C-88.8439352 59.79735161 -96.99057341 63.3135136 -105.1328125 66.83984375 C-106.31601074 67.35216553 -107.49920898 67.8644873 -108.71826172 68.39233398 C-110.31181264 69.09237541 -111.89634306 69.81535903 -113.453125 70.59375 C-113.47897322 77.70230307 -113.49619476 84.81084359 -113.50805664 91.91943359 C-113.51301372 94.32601372 -113.51978135 96.73259095 -113.52856445 99.13916016 C-113.86279395 130.19330062 -113.86279395 130.19330062 -110.703125 161.03125 C-110.4397937 162.65123901 -110.4397937 162.65123901 -110.17114258 164.30395508 C-107.64822464 179.11133036 -103.26216275 192.2346312 -96.453125 205.59375 C-95.96972656 206.56957031 -95.48632812 207.54539063 -94.98828125 208.55078125 C-89.17724063 219.80262999 -81.12867162 229.44167901 -72.453125 238.59375 C-71.58300781 239.52832031 -70.71289062 240.46289062 -69.81640625 241.42578125 C-58.21966816 253.62109967 -44.37962305 263.2490517 -30.453125 272.59375 C-29.45152344 273.30015625 -28.44992187 274.0065625 -27.41796875 274.734375 C-26.46019531 275.38921875 -25.50242187 276.0440625 -24.515625 276.71875 C-23.68160156 277.29882812 -22.84757812 277.87890625 -21.98828125 278.4765625 C-18.588186 279.97490956 -16.99531059 279.67990203 -13.453125 278.59375 C-10.99791085 277.18711689 -8.75500138 275.77663984 -6.453125 274.15625 C-5.80158447 273.70813965 -5.15004395 273.2600293 -4.47875977 272.79833984 C-3.12566423 271.86403236 -1.77614467 270.92452573 -0.43017578 269.97998047 C1.41939847 268.68313155 3.28014459 267.40432207 5.14453125 266.12890625 C24.64724048 252.65460567 42.40787699 236.41253994 55.546875 216.59375 C56.19011719 215.6346875 56.83335937 214.675625 57.49609375 213.6875 C71.8116588 190.78259593 77.09927883 163.28779435 78.125 136.65625 C78.16584213 135.63265381 78.20668427 134.60905762 78.24876404 133.55444336 C78.70614205 120.90291868 78.65557113 108.25148957 78.609375 95.59375 C78.60434083 93.14974052 78.59978137 90.70573001 78.59570312 88.26171875 C78.58487037 82.37237281 78.56828981 76.4830665 78.546875 70.59375 C54.68441706 59.82281558 30.58643146 49.61081329 6.4831543 39.39253235 C1.93867246 37.46516791 -2.60390934 35.53480001 -7.13037109 33.56542969 C-7.79453537 33.27707245 -8.45869965 32.98871521 -9.14299011 32.69161987 C-10.80204201 31.96931667 -12.45911501 31.24247245 -14.1159668 30.51513672 C-17.88330461 29.02992488 -19.61336966 29.98535713 -23.23364258 31.54296875 Z " fill="#6639B7" transform="translate(401.453125,36.40625)"/>
<path d="M0 0 C4.8846525 2.26787438 7.73212562 5.1153475 10 10 C11.2832877 17.75504033 10.21928135 22.36374796 5.72949219 28.7043457 C3.02777536 32.29048959 0.20782607 35.75652846 -2.6875 39.1875 C-3.93095551 40.67863102 -5.1731278 42.17083298 -6.4140625 43.6640625 C-7.02282227 44.39657227 -7.63158203 45.12908203 -8.25878906 45.88378906 C-10.74408129 48.90433211 -13.1599815 51.97596511 -15.5625 55.0625 C-19.4813921 60.09219082 -23.46796629 65.06053717 -27.5 70 C-31.54984554 74.96235291 -35.55678277 79.95250884 -39.5 85 C-40.84570273 86.71541764 -42.19266319 88.42983484 -43.54052734 90.14355469 C-44.57610964 91.46081259 -45.61013039 92.77929879 -46.64306641 94.09863281 C-48.35723158 96.28135918 -50.08356456 98.45396234 -51.8125 100.625 C-52.33972656 101.30046875 -52.86695313 101.9759375 -53.41015625 102.671875 C-57.19197924 107.38960368 -60.77765307 111.42937606 -67 112.53125 C-77.47502449 112.42213516 -77.47502449 112.42213516 -82 108 C-89.3375514 98.74397366 -95.61373795 88.62860548 -102.08422852 78.76293945 C-103.95489822 75.91097523 -105.82967182 73.06174186 -107.70507812 70.21289062 C-108.89607013 68.40119731 -110.08683386 66.58935391 -111.27734375 64.77734375 C-112.11784523 63.49935158 -112.11784523 63.49935158 -112.97532654 62.19554138 C-113.48998978 61.41034622 -114.00465302 60.62515106 -114.53491211 59.81616211 C-114.98821396 59.12542099 -115.44151581 58.43467987 -115.90855408 57.7230072 C-118.99362475 52.85277142 -118.52191344 47.61608263 -118 42 C-115.73212562 37.1153475 -112.8846525 34.26787438 -108 32 C-102.61804671 31.27550629 -97.81717045 31.2661427 -92.75 33.3125 C-88.52770843 37.4388304 -85.29585564 42.12536037 -82 47 C-81.49500977 47.73847168 -80.99001953 48.47694336 -80.46972656 49.23779297 C-78.80538522 51.67419556 -77.15069234 54.11683189 -75.5 56.5625 C-74.95907715 57.36059082 -74.4181543 58.15868164 -73.86083984 58.98095703 C-73.3602002 59.73103027 -72.85956055 60.48110352 -72.34375 61.25390625 C-71.89193359 61.92752197 -71.44011719 62.6011377 -70.97460938 63.29516602 C-70 65 -70 65 -70 67 C-66.42599926 63.50926451 -63.08939746 59.88907964 -59.875 56.0625 C-59.39981934 55.49893799 -58.92463867 54.93537598 -58.43505859 54.35473633 C-54.61358229 49.7935179 -50.92263233 45.13823494 -47.26708984 40.44360352 C-43.2031765 35.23075665 -39.03921354 30.10377615 -34.85400391 24.98803711 C-32.16500993 21.69323663 -29.5050926 18.38215639 -26.90625 15.015625 C-26.41576172 14.38140625 -25.92527344 13.7471875 -25.41992188 13.09375 C-24.50449597 11.90508143 -23.59394834 10.71263209 -22.68945312 9.515625 C-16.0166401 0.85450107 -10.67577182 -0.99212016 0 0 Z " fill="#6639B7" transform="translate(438,128)"/>
<path d="M0 0 C0.73250977 -0.00700928 1.46501953 -0.01401855 2.21972656 -0.02124023 C4.62604382 -0.03875584 7.03117209 -0.02722142 9.4375 -0.01367188 C11.11849186 -0.01636866 12.79948221 -0.02025264 14.48046875 -0.02526855 C17.99754743 -0.03115485 21.5142188 -0.02262896 25.03125 -0.00390625 C29.53052189 0.01888312 34.02883927 0.00575532 38.52807617 -0.01819611 C41.99746847 -0.03267779 45.46663594 -0.02803731 48.93603516 -0.01768494 C50.59456496 -0.01502418 52.25311544 -0.01826444 53.91162109 -0.02760315 C56.23329421 -0.03780834 58.55344011 -0.02221466 60.875 0 C62.19371094 0.00318237 63.51242188 0.00636475 64.87109375 0.00964355 C70.16529367 0.76365389 73.1949097 3.20958834 76.8125 7.01757812 C79.21053575 12.18257821 79.19131535 16.91780692 78.4375 22.51757812 C76.12838725 27.49105174 73.16511365 29.84944159 68.4375 32.51757812 C64.87109375 33.0255127 64.87109375 33.0255127 60.875 33.03515625 C60.14249023 33.04216553 59.40998047 33.0491748 58.65527344 33.05639648 C56.24895618 33.07391209 53.84382791 33.06237767 51.4375 33.04882812 C49.75650814 33.05152491 48.07551779 33.05540889 46.39453125 33.0604248 C42.87745257 33.0663111 39.3607812 33.05778521 35.84375 33.0390625 C31.34447811 33.01627313 26.84616073 33.02940093 22.34692383 33.05335236 C18.87753153 33.06783404 15.40836406 33.06319356 11.93896484 33.05284119 C10.28043504 33.05018043 8.62188456 33.05342069 6.96337891 33.0627594 C4.64170579 33.07296459 2.32155989 33.05737091 0 33.03515625 C-1.31871094 33.03197388 -2.63742188 33.0287915 -3.99609375 33.0255127 C-9.29029367 32.27150236 -12.3199097 29.82556791 -15.9375 26.01757812 C-18.33553575 20.85257804 -18.31631535 16.11734933 -17.5625 10.51757812 C-13.97822937 2.79761062 -8.2761305 0.01997233 0 0 Z " fill="#673AB7" transform="translate(81.5625,319.482421875)"/>
</svg>
