<?xml version="1.0" encoding="UTF-8"?>
<svg version="1.1" xmlns="http://www.w3.org/2000/svg" width="512" height="512">
<path d="M0 0 C1.62750208 -0.00679667 1.62750208 -0.00679667 3.28788298 -0.01373065 C6.92428032 -0.02639292 10.56052824 -0.02475307 14.19694519 -0.02310181 C16.80388583 -0.02908589 19.4108247 -0.03589116 22.01776123 -0.04345703 C28.36469909 -0.06005298 34.7115998 -0.06556594 41.05855755 -0.06668179 C46.21900271 -0.06763292 51.37943564 -0.07174649 56.53987694 -0.07808304 C71.17862585 -0.09569158 85.81734546 -0.10492251 100.45610503 -0.10342209 C101.24488892 -0.10334218 102.03367282 -0.10326227 102.84635925 -0.10317993 C104.03098384 -0.10305729 104.03098384 -0.10305729 105.23954024 -0.10293217 C118.03685168 -0.10211937 130.83404539 -0.12125654 143.63132278 -0.14945666 C156.77925886 -0.17820032 169.92713755 -0.19199615 183.07510585 -0.19026911 C190.4535718 -0.18960572 197.83191433 -0.19507552 205.21035194 -0.21662521 C212.15020304 -0.23676446 219.08978958 -0.23614816 226.02965355 -0.22159195 C228.57533524 -0.21949981 231.12103314 -0.22422872 233.66668701 -0.23631287 C237.14487843 -0.25175309 240.6221697 -0.24246401 244.1003418 -0.22705078 C245.60736773 -0.24248147 245.60736773 -0.24248147 247.14483863 -0.25822389 C256.93574456 -0.1625048 265.14268356 3.48685131 272.24064636 10.26742554 C281.92730138 21.97531172 282.39383732 33.31915002 282.37435913 47.96856689 C282.37662469 49.22622962 282.37889024 50.48389235 282.38122445 51.77966607 C282.3873096 55.24978656 282.38721276 58.71988284 282.38603008 62.19000745 C282.38582524 65.94060969 282.39135267 69.69120432 282.39608765 73.44180298 C282.40437629 80.78161431 282.40714166 88.12141762 282.40770002 95.46123324 C282.40817595 101.42917502 282.41023453 107.39711415 282.41340065 113.36505508 C282.4222017 130.30011954 282.42682079 147.23517768 282.42607018 164.17024444 C282.42601024 165.53826852 282.42601024 165.53826852 282.4259491 166.93392944 C282.42590822 167.84706386 282.42586734 168.76019829 282.42582522 169.70100345 C282.42541871 184.50135657 282.43499072 199.30168426 282.44908746 214.10203002 C282.46346103 229.3134668 282.47035713 244.52489118 282.46949369 259.73633492 C282.4691621 268.27061356 282.47189264 276.80486552 282.48267174 285.33913803 C282.49178955 292.60437882 282.49394141 299.86958082 282.48716231 307.13482486 C282.48390382 310.83846463 282.48381617 314.54203005 282.49251556 318.24566269 C282.50186595 322.26793666 282.49558724 326.29003944 282.48788452 330.31231689 C282.49302808 331.47254864 282.49817165 332.63278038 282.50347108 333.82817066 C282.45458625 345.40667217 281.52940993 356.33330851 273.45158386 365.24008179 C265.21229729 372.97056779 257.65399474 374.70470696 246.59611511 374.89633179 C235.32498938 373.88033182 224.12056728 366.34837838 214.14372253 361.3218689 C211.70887752 360.09540523 209.27096352 358.87523443 206.83244324 357.65609741 C198.83096009 353.64617184 190.87185877 349.56708246 182.96330261 345.37680054 C173.10795648 340.15762951 163.1519788 335.14699776 153.17326355 330.16854858 C150.18638685 328.67784547 147.20172992 327.18276026 144.21720886 325.68734741 C142.30848324 324.73331415 140.39963393 323.77952831 138.49064636 322.82601929 C137.60328796 322.38132797 136.71592957 321.93663666 135.80168152 321.47846985 C134.98232117 321.07036575 134.16296082 320.66226166 133.31877136 320.24179077 C132.24224304 319.70412331 132.24224304 319.70412331 131.14396667 319.15559387 C126.13071118 316.81620057 121.23492572 316.2574555 115.98381042 318.02865601 C113.39878146 319.17571582 110.88419302 320.41831599 108.36564636 321.70492554 C106.91013367 322.42506836 106.91013367 322.42506836 105.42521667 323.15975952 C102.64875231 324.53748454 99.8801321 325.92988295 97.11308289 327.3263855 C93.69698693 329.04323038 90.2685003 330.73511078 86.84220886 332.43148804 C74.38632253 338.60856676 61.9540238 344.81907719 49.686203 351.3633728 C42.10224465 355.38551699 34.43542749 359.2435026 26.76359558 363.09457397 C25.21976588 363.86987796 23.6766211 364.64654748 22.13420105 365.4246521 C19.95692299 366.52228815 17.77694244 367.6143616 15.59611511 368.70492554 C14.61755806 369.19956299 14.61755806 369.19956299 13.61923218 369.70419312 C4.0839588 374.44846948 -5.08567349 375.91030015 -15.64216614 373.65023804 C-24.22148754 370.61116807 -30.79415483 364.95913998 -34.75935364 356.76742554 C-37.92078954 349.47855944 -37.91668963 341.72751246 -37.92732239 333.91195679 C-37.93065079 333.04729294 -37.93397919 332.18262909 -37.93740845 331.29176331 C-37.94243909 329.47742236 -37.94481798 327.66307228 -37.94465637 325.84872437 C-37.9468557 323.07733079 -37.96508712 320.3063277 -37.98396301 317.53500366 C-37.98689522 315.76482272 -37.98888117 313.99463991 -37.98982239 312.22445679 C-37.9970079 311.40040848 -38.00419342 310.57636017 -38.01159668 309.7273407 C-37.99033967 304.3752698 -37.72552897 300.23360087 -33.75935364 296.26742554 C-26.49258 295.69069747 -26.49258 295.69069747 -24.16011047 297.52532959 C-22.42387928 299.68464894 -22.38212819 300.75950665 -22.37458801 303.50424194 C-22.36447693 304.35587921 -22.35436584 305.20751648 -22.34394836 306.08496094 C-22.3469696 307.00368988 -22.34999084 307.92241882 -22.35310364 308.86898804 C-22.34226746 309.82002411 -22.33143127 310.77106018 -22.32026672 311.75091553 C-22.28595554 314.798154 -22.27041413 317.84501925 -22.25935364 320.89242554 C-22.24471028 324.88496833 -22.21081932 328.87668719 -22.16560364 332.86898804 C-22.16862488 333.77557159 -22.17164612 334.68215515 -22.17475891 335.61621094 C-22.10191296 341.88814596 -21.67472992 348.99948556 -17.30757141 353.89477539 C-12.37580167 358.09761873 -9.03269452 358.63108721 -2.73274231 358.56228638 C2.00990211 358.09197446 5.6720784 356.24552757 9.83439636 354.02523804 C11.14180786 353.36163773 11.14180786 353.36163773 12.47563171 352.68463135 C15.24172632 351.2743801 17.99088107 349.83421009 20.74064636 348.39242554 C22.55211727 347.46333301 24.36461241 346.53623464 26.17814636 345.61117554 C33.89940045 341.6591107 41.57545759 337.62240869 49.24194336 333.56536865 C60.36924206 327.68042964 71.59345278 321.9979377 82.85221863 316.36898804 C86.09651993 314.74572387 89.33754355 313.11603226 92.57853699 311.48617554 C94.65972206 310.44411905 96.7410952 309.40243807 98.82267761 308.36117554 C99.78204727 307.87789795 100.74141693 307.39462036 101.7298584 306.896698 C108.43879316 303.55370778 114.25649839 300.97861004 121.86564636 300.82992554 C122.97166199 300.7899646 124.07767761 300.75000366 125.21720886 300.70883179 C136.05502113 301.52792858 147.00770783 309.00924343 156.61955261 313.84164429 C158.08131465 314.5731239 159.54322693 315.30430336 161.00527954 316.03520203 C164.05641918 317.56154879 167.10621108 319.09054337 170.154953 320.62167358 C174.0031188 322.55419389 177.85386824 324.48149481 181.70552254 326.40705109 C199.52226712 335.31572902 217.30989025 344.25923946 234.77755737 353.84016418 C241.46700747 357.42586501 247.54948269 360.04129117 255.24064636 358.26742554 C260.1411582 355.95081994 262.64090308 352.98547816 265.24064636 348.26742554 C266.13195282 344.75590869 266.36654106 341.47913081 266.36928082 337.86438274 C266.37250526 336.78647525 266.37572971 335.70856777 266.37905186 334.59799641 C266.37750326 333.4196055 266.37595466 332.24121459 266.37435913 331.02711487 C266.37662469 329.77075314 266.37889024 328.51439142 266.38122445 327.21995813 C266.38734108 323.73500846 266.38720902 320.25008278 266.38603008 316.76512897 C266.38582604 313.00565208 266.39134517 309.2461829 266.39608765 305.48670959 C266.40439407 298.12195637 266.40714249 290.75721115 266.40770002 283.39245363 C266.4081752 277.40579773 266.41023003 271.41914446 266.41340065 265.4324894 C266.4222073 248.45859535 266.42682002 231.48470763 266.42607018 214.51081129 C266.42603022 213.59574546 266.42599026 212.68067962 266.4259491 211.73788452 C266.42590822 210.82170116 266.42586734 209.9055178 266.42582522 208.96157131 C266.42541877 194.11367154 266.43498793 179.26579713 266.44908746 164.4179047 C266.46345109 149.17157866 266.47035765 133.92526499 266.46949369 118.67893201 C266.46916171 110.11953842 266.47190924 101.56017142 266.48267174 93.00078392 C266.49177656 85.71303577 266.49395214 78.42532625 266.48716231 71.13757487 C266.48389699 67.42015785 266.48384087 63.70281495 266.49251556 59.98540497 C266.50182818 55.95310956 266.49560484 51.92098586 266.48788452 47.88868713 C266.49559987 46.13113902 266.49559987 46.13113902 266.50347108 44.33808488 C266.46702654 35.73388648 266.02793915 28.12079858 260.24064636 21.26742554 C252.69568972 15.30239572 245.46925729 15.1184057 236.16464233 15.13371277 C235.15314489 15.13144721 234.14164745 15.12918166 233.09949857 15.12684745 C229.71188451 15.12051996 226.32431059 15.12133601 222.93669128 15.12216187 C220.50708972 15.1191696 218.07748864 15.11576691 215.64788818 15.11198425 C209.73409677 15.10406486 203.82031477 15.1009299 197.90651914 15.10037187 C193.09790862 15.0998962 188.28930139 15.09783889 183.48069191 15.09467125 C169.83802306 15.08586755 156.19536206 15.08125142 142.55269035 15.08200172 C141.45016339 15.08206166 141.45016339 15.08206166 140.32536316 15.0821228 C139.22148517 15.08218412 139.22148517 15.08218412 138.09530661 15.08224668 C126.17101326 15.08265306 114.2467515 15.07308487 102.32246729 15.05898444 C90.06950717 15.04461004 77.81656245 15.03771484 65.56359369 15.03857821 C58.68818694 15.03890982 51.81281331 15.03617876 44.93741417 15.02540016 C38.47039796 15.01532651 32.00343359 15.0156414 25.53641319 15.02291679 C23.16489052 15.02396239 20.79336349 15.02160126 18.4218483 15.01555634 C15.18035057 15.00782998 11.93909392 15.01248566 8.69760132 15.02018738 C7.76295443 15.01504381 6.82830755 15.00990025 5.86533803 15.00460082 C-2.55985233 15.04872526 -10.0443438 15.63991615 -16.32185364 21.62680054 C-21.69944996 27.7642746 -21.88199541 34.88668318 -21.89738464 42.68836975 C-21.90020592 43.41416837 -21.9030272 44.13996699 -21.90593398 44.88775951 C-21.91423546 47.30818977 -21.91561434 49.72857403 -21.91706848 52.14901733 C-21.92173971 53.88885628 -21.92688378 55.62869401 -21.9324646 57.36853027 C-21.94372146 61.10894849 -21.95216697 64.84935884 -21.95858383 68.58978844 C-21.96927833 74.50139192 -21.9895244 80.4129385 -22.01170349 86.32450867 C-22.07358766 103.13235892 -22.12771312 119.94020478 -22.16072083 136.74813843 C-22.17903951 146.03559764 -22.20793409 155.32296054 -22.24872553 164.610349 C-22.26982916 169.52490679 -22.28525767 174.43934309 -22.28753281 179.35394859 C-22.289673 183.97101176 -22.30547758 188.58782129 -22.33192253 193.20480728 C-22.33913906 194.90156088 -22.34120517 196.59834513 -22.33782005 198.2951107 C-22.33394477 200.60618789 -22.34831525 202.91644714 -22.36735535 205.22743225 C-22.37066549 206.52213283 -22.37397564 207.8168334 -22.37738609 209.15076733 C-22.75935364 212.26742554 -22.75935364 212.26742554 -24.10025978 214.15664387 C-26.61167717 215.83806556 -28.76964007 216.08438185 -31.75935364 216.26742554 C-34.00935364 215.64242554 -34.00935364 215.64242554 -35.75935364 214.26742554 C-37.85009231 210.17477113 -38.01060051 206.69754403 -38.01332092 202.14118958 C-38.0164409 201.43484613 -38.01956089 200.72850268 -38.02277541 200.00075489 C-38.030737 197.63960843 -38.02443882 195.27872029 -38.0181427 192.91757202 C-38.02085355 191.22203928 -38.02441501 189.52650772 -38.02876282 187.83097839 C-38.03788274 183.22728043 -38.03434289 178.6236721 -38.02800465 174.01997256 C-38.02293684 169.19425641 -38.02763881 164.36854788 -38.03077698 159.54283142 C-38.03441678 151.43140285 -38.02961969 143.32001069 -38.02009583 135.20858765 C-38.00923692 125.85255101 -38.01271811 116.49660172 -38.02374864 107.14056724 C-38.03285181 99.09532727 -38.03409124 91.05011346 -38.0288713 83.00487 C-38.02576491 78.20571563 -38.02530494 73.40660217 -38.03194427 68.60745049 C-38.03776034 64.08729322 -38.03364356 59.56724732 -38.02215576 55.04710197 C-38.01953071 53.39604374 -38.020237 51.744976 -38.02468109 50.09392166 C-38.06259768 34.5642503 -37.61654634 21.00618053 -26.68513489 9.09164429 C-18.78810954 1.61109492 -10.57067564 -0.03237128 0 0 Z " fill="#4551D3" transform="translate(133.7593536376953,68.73257446289063)"/>
<path d="M0 0 C0.85207031 -0.02578125 1.70414062 -0.0515625 2.58203125 -0.078125 C5.82523376 0.3303143 7.52114169 1.36833728 10.1875 3.25 C11.71386719 5.41625977 11.71386719 5.41625977 12.984375 7.94140625 C13.4690625 8.88822266 13.95375 9.83503906 14.453125 10.81054688 C14.94296875 11.80119141 15.4328125 12.79183594 15.9375 13.8125 C16.411875 14.74513672 16.88625 15.67777344 17.375 16.63867188 C17.86484375 17.60482422 18.3546875 18.57097656 18.859375 19.56640625 C19.39377197 20.5912915 19.92816895 21.61617676 20.47875977 22.67211914 C21.79324278 25.42447642 22.85742412 28.04557888 23.87866211 30.90405273 C26.93744575 39.37329259 26.93744575 39.37329259 33.23406982 45.40109253 C39.06548912 47.43537535 45.13030885 47.78243603 51.25 48.1875 C53.96244696 48.44648464 56.67161315 48.72887566 59.38121033 49.01600647 C61.05652057 49.18495502 62.73408175 49.33339637 64.41334534 49.45701599 C70.905844 49.97730274 76.97104298 50.97813155 81.6875 55.8125 C83.75131856 60.54208419 84.20415048 64.18745713 83.1875 69.25 C79.84498894 74.58586311 74.59078896 78.78435191 70 83.04296875 C68.30608967 84.63371441 66.61407067 86.22643212 64.92333984 87.82055664 C63.76284782 88.90156067 62.59111225 89.97061466 61.40869141 91.02758789 C54.31132529 97.13963145 54.31132529 97.13963145 50.56958008 105.41162109 C50.78406848 108.82929336 51.39025497 111.92065311 52.1875 115.25 C52.61524154 117.75399432 53.0355708 120.25926394 53.44921875 122.765625 C54.03845974 126.0023471 54.62998683 129.23814301 55.25708008 132.46777344 C56.7692578 140.32288665 57.82247905 146.59110005 55.1875 154.25 C52.54456247 157.57061382 51.08832276 158.84849214 46.99145508 159.71386719 C37.51307159 160.25804564 30.3347999 155.84976495 22.3125 151.4375 C20.91255137 150.69000658 19.5115145 149.94454756 18.109375 149.20117188 C7.94944105 143.78662025 7.94944105 143.78662025 4.63232422 141.45043945 C1.3218193 139.82493988 -0.29738109 140.23640747 -3.8125 141.25 C-7.03922524 142.67926903 -7.03922524 142.67926903 -10.3125 144.5234375 C-10.91126953 144.84784821 -11.51003906 145.17225891 -12.12695312 145.50650024 C-14.02667299 146.53791912 -15.91965061 147.58103562 -17.8125 148.625 C-19.70673921 149.65909998 -21.60228634 150.6907686 -23.49804688 151.72207642 C-25.21956553 152.66028903 -26.93799952 153.60415518 -28.65625 154.54833984 C-35.7657498 158.38135451 -40.66112297 160.49753616 -48.8125 159.25 C-51.89342578 157.98712547 -52.61580082 157.00995539 -54.8125 154.25 C-58.21416327 145.16227202 -55.68034588 136.35821837 -53.9375 127.125 C-53.49061546 124.69056628 -53.04881561 122.25536271 -52.61325073 119.81887817 C-52.34249412 118.31155761 -52.06471458 116.80547485 -51.77859497 115.30099487 C-49.96165514 107.64025459 -49.96165514 107.64025459 -52.0144043 100.46685791 C-53.77786779 98.4893748 -55.62981237 96.6720409 -57.55859375 94.85546875 C-58.24429947 94.18203934 -58.93000519 93.50860992 -59.63648987 92.81477356 C-61.82506096 90.67190692 -64.03638778 88.55446053 -66.25 86.4375 C-68.4546441 84.29766307 -70.65443698 82.15295724 -72.85279846 80.00666809 C-74.22135047 78.67402418 -75.59455871 77.3461424 -76.97276306 76.02348328 C-77.90361473 75.12663567 -77.90361473 75.12663567 -78.85327148 74.21166992 C-79.40176254 73.68651291 -79.9502536 73.1613559 -80.5153656 72.62028503 C-83.53219904 69.43332021 -83.14825979 65.96536707 -83.08203125 61.79296875 C-82.67298143 57.93367261 -81.50974372 56.01467481 -78.8125 53.25 C-72.94073351 50.57139206 -68.3292849 49.93943191 -61.94921875 49.98046875 C-44.23053607 49.91125401 -44.23053607 49.91125401 -28.88830566 42.44213867 C-21.88645506 33.84107235 -17.73917712 22.8869995 -14.25454712 12.45648193 C-11.75729243 5.12579574 -8.16113083 0.14682694 0 0 Z M-0.8125 18.25 C-1.18012451 18.98524902 -1.54774902 19.72049805 -1.92651367 20.47802734 C-10.48046875 37.5859375 -10.48046875 37.5859375 -12.20068359 41.00292969 C-13.2186407 43.05364606 -14.21432358 45.1157093 -15.17822266 47.19238281 C-19.26870997 55.91128454 -19.26870997 55.91128454 -23.8125 58.25 C-27.69494518 59.22369016 -31.598351 59.78036779 -35.5625 60.3125 C-37.80615708 60.64078435 -40.04964642 60.97021714 -42.29296875 61.30078125 C-43.39560059 61.45885254 -44.49823242 61.61692383 -45.63427734 61.77978516 C-50.06369327 62.43511278 -54.4692642 63.20267538 -58.875 64 C-59.58817383 64.12769775 -60.30134766 64.25539551 -61.03613281 64.38696289 C-62.62861318 64.67265371 -64.22062304 64.96096594 -65.8125 65.25 C-62.85293371 68.8754687 -59.9561006 72.23309905 -56.375 75.25 C-52.04897616 78.94356422 -47.98830267 82.88521642 -43.9375 86.875 C-43.27049072 87.52082031 -42.60348145 88.16664063 -41.91625977 88.83203125 C-41.28647217 89.45722656 -40.65668457 90.08242187 -40.0078125 90.7265625 C-39.44078613 91.28424316 -38.87375977 91.84192383 -38.28955078 92.41650391 C-34.28321643 97.38965613 -34.72736554 101.77085524 -35.35449219 107.80810547 C-36.26858687 114.67745878 -37.53697127 121.48168747 -38.80664062 128.29272461 C-39.16113817 130.20573173 -39.50649455 132.12042575 -39.8515625 134.03515625 C-40.05990723 135.15801025 -40.26825195 136.28086426 -40.48291016 137.43774414 C-41.02308205 140.32576355 -41.02308205 140.32576355 -39.8125 143.25 C-39.11801758 142.8876123 -38.42353516 142.52522461 -37.70800781 142.15185547 C-34.49338194 140.47519282 -31.27794538 138.80009046 -28.0625 137.125 C-26.97066406 136.55523437 -25.87882812 135.98546875 -24.75390625 135.3984375 C-22.54355087 134.24748322 -20.32929968 133.10398154 -18.11132812 131.96777344 C-15.92873439 130.83124816 -13.76502364 129.65762742 -11.62304688 128.44628906 C-2.0412927 123.18697066 -2.0412927 123.18697066 3.68603516 124.35644531 C9.70598142 126.50684579 15.26967061 129.58734562 20.875 132.625 C22.17961713 133.31906605 23.48495179 134.01178514 24.79101562 134.703125 C27.19440197 135.97658851 29.59209564 137.25894104 31.98706055 138.54833984 C35.03048503 140.1665158 38.09774886 141.72247603 41.1875 143.25 C40.29391147 136.57160148 39.32284214 129.92419577 38.12890625 123.29296875 C37.94360352 122.24625 37.75830078 121.19953125 37.56738281 120.12109375 C37.19552533 118.03459568 36.81371454 115.94984151 36.42089844 113.8671875 C33.91733255 99.69115207 33.91733255 99.69115207 37.53833008 94.20239258 C39.32888784 92.10280972 41.21237363 90.17651081 43.1875 88.25 C43.83460938 87.5806543 44.48171875 86.91130859 45.1484375 86.22167969 C47.13871378 84.16551976 49.15821777 82.14261969 51.1875 80.125 C51.86039062 79.44824219 52.53328125 78.77148438 53.2265625 78.07421875 C57.38902391 73.91979298 61.67528742 70.02192771 66.1875 66.25 C62.64899318 63.89099545 59.59457439 63.57237883 55.484375 63.06640625 C53.93097844 62.85880733 52.37759339 62.65112228 50.82421875 62.44335938 C48.38465989 62.12672119 45.94471248 61.81341839 43.50439453 61.50268555 C41.14234983 61.19910362 38.78217533 60.88322456 36.421875 60.56640625 C35.34181183 60.43498985 35.34181183 60.43498985 34.2399292 60.30091858 C28.78871004 59.56340677 23.84603221 58.31046262 19.40551758 54.86889648 C17.85061055 52.80223212 16.79386937 50.691912 15.69921875 48.34765625 C15.01436401 46.89564819 15.01436401 46.89564819 14.31567383 45.41430664 C13.84025146 44.39071045 13.3648291 43.36711426 12.875 42.3125 C11.89400653 40.22880051 10.91224224 38.14546374 9.9296875 36.0625 C9.45885742 35.06089844 8.98802734 34.05929688 8.50292969 33.02734375 C6.14961928 28.05866164 3.68400043 23.14819704 1.1875 18.25 C0.5275 18.25 -0.1325 18.25 -0.8125 18.25 Z " fill="#484ED0" transform="translate(255.8125,143.75)"/>
<path d="M0 0 C1.0209375 -0.01160156 1.0209375 -0.01160156 2.0625 -0.0234375 C4.64404776 0.5074453 5.49068947 1.2175193 7 3.375 C7.3984375 5.96875 7.3984375 5.96875 7.375 8.875 C7.38273437 9.8340625 7.39046875 10.793125 7.3984375 11.78125 C7 14.375 7 14.375 5.66015625 16.16796875 C3.17108129 17.97767267 1.0386842 18.18895811 -2 18.375 C-4.74954328 17.40894425 -5.69007757 16.99484486 -7 14.375 C-7.14716542 12.56656337 -7.2210887 10.75168434 -7.25 8.9375 C-7.27578125 7.96941406 -7.3015625 7.00132812 -7.328125 6.00390625 C-7 3.375 -7 3.375 -5.734375 1.55078125 C-3.65717864 0.14259183 -2.49365004 -0.02833693 0 0 Z " fill="#4E4ACB" transform="translate(104,314.625)"/>
</svg>
