<svg width="450" height="413" viewBox="0 0 450 413" fill="none" xmlns="http://www.w3.org/2000/svg">
<g clip-path="url(#clip0_715_11681)">
<path d="M116.695 335.835L109.172 335.734L95.458 329.716L95.9101 328.699L109.398 334.616L116.695 334.717V335.835Z" fill="#2A2E44"/>
<path d="M129.039 335.395C129.038 335.709 128.974 336.019 128.851 336.307C128.729 336.595 128.55 336.857 128.326 337.075C128.101 337.294 127.836 337.466 127.544 337.581C127.253 337.695 126.941 337.751 126.628 337.745L115.074 337.594C114.436 337.591 113.824 337.335 113.373 336.884C112.921 336.432 112.666 335.82 112.663 335.182C112.665 334.869 112.729 334.559 112.851 334.272C112.974 333.984 113.153 333.724 113.377 333.506C113.602 333.288 113.868 333.118 114.159 333.004C114.451 332.891 114.762 332.836 115.074 332.845L126.628 332.996C127.265 332.999 127.874 333.252 128.325 333.701C128.776 334.15 129.033 334.759 129.039 335.395Z" fill="#2A2E44"/>
<path d="M103.483 350.873L94.0391 350.773V327.103L106.736 327.292V347.695C106.733 348.118 106.646 348.536 106.48 348.925C106.315 349.314 106.074 349.666 105.771 349.962C105.469 350.257 105.111 350.49 104.718 350.646C104.326 350.803 103.906 350.88 103.483 350.873Z" fill="#404360"/>
<path d="M127.733 292.931V273.809C127.733 262.15 132.569 251.823 131.099 219.221C130.132 197.863 128.989 178.012 128.311 166.906C128.117 164.356 126.995 161.965 125.157 160.187C123.319 158.409 120.894 157.367 118.34 157.257L36.7086 153.677C35.366 153.604 34.0233 153.818 32.7695 154.304C31.5157 154.79 30.3796 155.537 29.4365 156.496C28.4935 157.455 27.7651 158.603 27.2997 159.865C26.8343 161.127 26.6425 162.474 26.7371 163.816C27.4278 175.311 28.5205 194.822 29.4498 215.841C30.9192 249.021 26.0967 259.537 26.0967 271.397V290.845L127.733 292.931Z" fill="#404360"/>
<path d="M138.446 293.157V274.073C138.446 262.426 143.281 252.124 141.812 219.572C140.845 198.214 139.702 178.439 139.024 167.358C138.829 164.809 137.706 162.42 135.868 160.644C134.031 158.868 131.605 157.829 129.052 157.722L47.4211 154.154C46.0864 154.083 44.7516 154.294 43.5043 154.775C42.257 155.256 41.1254 155.995 40.1838 156.944C39.2422 157.893 38.5119 159.031 38.0406 160.282C37.5694 161.533 37.368 162.87 37.4496 164.205C38.1403 175.675 39.2329 195.149 40.1622 216.142C41.6316 249.247 36.8091 259.75 36.8091 271.585V291.008L138.446 293.157Z" fill="#343852"/>
<path d="M32.326 304.665L127.633 306.399V292.931L26.1724 290.845V298.383C26.172 300.028 26.8163 301.607 27.9669 302.781C29.1174 303.956 30.6825 304.632 32.326 304.665Z" fill="#343852"/>
<path d="M43.0134 304.853L132.179 306.474C132.978 306.499 133.773 306.364 134.518 306.078C135.264 305.791 135.944 305.358 136.52 304.804C137.095 304.251 137.555 303.587 137.87 302.854C138.186 302.12 138.352 301.33 138.358 300.531V293.144L36.8848 291.071V298.609C36.8941 300.243 37.5393 301.809 38.6835 302.974C39.8276 304.14 41.3808 304.814 43.0134 304.853Z" fill="#2A2E44"/>
<path d="M49.167 319.05L104.613 319.917C106.253 319.962 107.884 319.679 109.413 319.085C110.941 318.49 112.335 317.596 113.513 316.455C114.692 315.314 115.63 313.949 116.273 312.44C116.917 310.93 117.252 309.308 117.26 307.668V306.21L36.5205 304.74V306.223C36.5363 309.59 37.8683 312.817 40.2317 315.214C42.595 317.611 45.802 318.988 49.167 319.05Z" fill="#404360"/>
<path d="M113.894 327.392L93.5237 327.091C91.5579 327.061 89.6814 326.264 88.2947 324.87C86.908 323.476 86.121 321.595 86.1016 319.628L121.266 320.181C121.261 321.14 121.066 322.089 120.691 322.973C120.317 323.856 119.771 324.656 119.086 325.327C118.4 325.998 117.588 326.526 116.697 326.88C115.805 327.235 114.853 327.409 113.894 327.392Z" fill="#343852"/>
<path d="M61.9894 319.251L117.436 320.118C119.082 320.174 120.722 319.898 122.259 319.307C123.797 318.716 125.2 317.822 126.385 316.679C127.571 315.535 128.514 314.165 129.16 312.649C129.806 311.133 130.141 309.504 130.145 307.856V306.399L49.4058 304.941V306.411C49.4147 309.771 50.7356 312.993 53.0865 315.392C55.4374 317.791 58.6322 319.176 61.9894 319.251Z" fill="#343852"/>
<path d="M101.071 327.204L80.7015 326.902C78.7227 326.873 76.835 326.065 75.4462 324.655C74.0575 323.244 73.2791 321.344 73.2793 319.364L108.443 319.917C108.449 320.883 108.261 321.84 107.891 322.732C107.521 323.624 106.977 324.433 106.29 325.112C105.604 325.791 104.788 326.326 103.892 326.685C102.996 327.044 102.037 327.221 101.071 327.204Z" fill="#2A2E44"/>
<path d="M100.393 350.836L90.9368 350.748C90.0772 350.738 89.2555 350.392 88.6476 349.784C88.0397 349.176 87.6939 348.354 87.6841 347.494V327.003L100.393 327.191V350.836Z" fill="#343852"/>
<path d="M102.365 379.581L91.6152 379.518V350.748L102.365 350.861V379.581Z" fill="#2A2E44"/>
<path d="M165.711 405.211C165.702 406.402 165.369 407.569 164.748 408.587C164.127 409.604 163.241 410.433 162.185 410.985C161.129 411.537 159.943 411.791 158.754 411.721C157.564 411.65 156.417 411.257 155.433 410.584C154.45 409.911 153.668 408.983 153.172 407.899C152.676 406.816 152.483 405.618 152.615 404.433C152.747 403.248 153.199 402.122 153.922 401.175C154.645 400.227 155.611 399.494 156.719 399.055V390.26L107.539 384.606L126.541 393.137L127.671 395.198V398.967C129.099 399.485 130.303 400.486 131.075 401.796C131.846 403.106 132.138 404.643 131.9 406.145C131.662 407.647 130.908 409.019 129.769 410.025C128.63 411.032 127.176 411.61 125.657 411.661C124.138 411.712 122.648 411.232 121.444 410.304C120.24 409.376 119.397 408.058 119.059 406.576C118.721 405.093 118.909 403.539 119.591 402.181C120.273 400.822 121.407 399.743 122.798 399.13V396.617L96.425 383.212L70.0519 396.479V399.067C71.3889 399.729 72.4675 400.818 73.1179 402.161C73.7682 403.504 73.9533 405.025 73.6438 406.485C73.3344 407.945 72.5481 409.26 71.4089 410.224C70.2697 411.187 68.8423 411.744 67.3518 411.806C65.7898 411.773 64.2882 411.197 63.1053 410.176C61.9224 409.155 61.1322 407.753 60.8705 406.212C60.6089 404.671 60.8921 403.087 61.6716 401.733C62.4511 400.378 63.6781 399.338 65.1415 398.791V395.022L66.2592 392.949L85.2604 384.493L36.0432 389.77V398.791C37.2753 399.312 38.3254 400.187 39.0608 401.305C39.7961 402.423 40.1839 403.734 40.175 405.072C40.2137 405.959 40.0727 406.844 39.7604 407.674C39.4481 408.504 38.9711 409.262 38.3579 409.903C37.7448 410.544 37.0083 411.054 36.1928 411.402C35.3774 411.751 34.4998 411.93 33.6131 411.93C32.7264 411.93 31.8489 411.751 31.0334 411.402C30.2179 411.054 29.4815 410.544 28.8683 409.903C28.2552 409.262 27.778 408.504 27.4657 407.674C27.1534 406.844 27.0124 405.959 27.0512 405.072C27.0423 403.734 27.43 402.423 28.1654 401.305C28.9008 400.187 29.9509 399.312 31.183 398.791V387.71L33.1547 385.26L96.3873 377.269L159.607 385.825L161.541 388.262V399.092C162.765 399.583 163.814 400.427 164.557 401.517C165.299 402.606 165.701 403.892 165.711 405.211Z" fill="#2A2E44"/>
<path d="M141.448 241.47L163.664 242.124C166.818 242.195 169.822 243.483 172.048 245.719C174.274 247.956 175.55 250.966 175.607 254.122V306.524" stroke="#2A2E44" stroke-width="8.48" stroke-linecap="round" stroke-linejoin="round"/>
<path d="M179.676 321.11L60.947 319.239C57.8607 319.183 54.9188 317.921 52.7502 315.724C50.5817 313.526 49.3587 310.567 49.3428 307.479V298.609C49.3422 297.099 49.6443 295.603 50.2311 294.211C50.8179 292.82 51.6774 291.559 52.7591 290.505C53.8408 289.451 55.1227 288.625 56.5289 288.075C57.9352 287.525 59.4375 287.262 60.947 287.302L179.676 289.815C182.729 289.853 185.647 291.079 187.812 293.231C189.978 295.384 191.222 298.295 191.28 301.348V310.004C191.254 311.498 190.933 312.972 190.334 314.34C189.735 315.709 188.872 316.945 187.793 317.978C186.714 319.01 185.441 319.819 184.048 320.357C182.655 320.894 181.169 321.151 179.676 321.11Z" fill="#343852"/>
<path d="M167.972 401.077L191.758 400.838L187.149 374.782L163.25 374.882L167.972 401.077Z" fill="#EAA387"/>
<path d="M188.982 385.159L165.083 385.046L163.25 374.882L187.149 374.782L188.982 385.159Z" fill="#110909"/>
<path d="M210.608 411.279C211.475 410.847 212.157 410.115 212.527 409.219C212.896 408.322 212.928 407.322 212.617 406.404C211.688 402.824 202.658 400.499 198.35 397.233C193.829 393.816 189.258 387.056 183.933 387.948C178.608 388.84 179.123 394.23 180.279 396.68C181.434 399.13 181.17 399.582 181.17 399.582C181.17 399.582 168.185 395.084 166.791 394.104C165.397 393.125 164.643 411.806 164.643 411.806L174.15 411.693C174.15 411.693 172.894 407.171 174.464 407.083C176.034 406.995 179.186 411.631 179.186 411.631L210.608 411.279Z" fill="#2A4579"/>
<path d="M202.307 399.57C200.446 399.32 198.57 399.198 196.693 399.205" stroke="#141B25" stroke-width="0.56" stroke-linecap="round" stroke-linejoin="round"/>
<path d="M216.309 401.178L240.083 400.939L235.474 375.096L211.575 375.196L216.309 401.178Z" fill="#EAA387"/>
<path d="M237.307 385.385L213.408 385.272L211.575 375.196L235.474 375.096L237.307 385.385Z" fill="#110909"/>
<path d="M258.933 411.291C259.798 410.866 260.479 410.141 260.848 409.251C261.218 408.361 261.252 407.367 260.943 406.454C260.013 402.899 250.984 400.6 246.676 397.358C242.155 393.966 237.584 387.308 232.259 388.149C226.934 388.991 227.449 394.431 228.604 396.806C229.76 399.18 229.496 399.683 229.496 399.683C229.496 399.683 216.51 395.223 215.116 394.255C213.722 393.288 212.969 411.844 212.969 411.844L222.476 411.731C222.476 411.731 221.22 407.246 222.79 407.158C224.359 407.07 227.512 411.681 227.512 411.681L258.933 411.291Z" fill="#2A4579"/>
<path d="M250.632 399.67C248.772 399.413 246.896 399.287 245.019 399.293" stroke="#141B25" stroke-width="0.56" stroke-linecap="round" stroke-linejoin="round"/>
<path d="M242.005 379.971C233.917 380.76 225.791 381.096 217.666 380.976C214.752 380.976 211.663 380.863 208.423 380.712C208.423 380.712 190.238 306.901 188.668 297.868C188.668 297.868 101.486 308.899 111.119 256.145C111.119 256.145 115.276 255.969 121.907 255.818C145.102 255.29 198.627 254.951 210.583 262.338C231.418 275.116 242.005 379.971 242.005 379.971Z" fill="#2A4579"/>
<g style="mix-blend-mode:multiply" opacity="0.2">
<path d="M217.666 380.976C214.752 380.976 211.663 380.863 208.423 380.712C208.423 380.712 190.238 306.901 188.668 297.868C188.668 297.868 101.486 308.899 111.119 256.145C111.119 256.145 115.276 255.969 121.907 255.818C122.472 260.466 124.205 266.61 128.186 274.387C137.341 292.315 179.827 288.973 191.984 287.629C192.872 287.538 193.764 287.766 194.5 288.273C195.236 288.779 195.769 289.53 196.002 290.393L217.666 380.976Z" fill="#301F1E"/>
</g>
<path d="M49.3677 261.899C49.3677 261.899 55.5465 271.032 70.554 271.271C81.4172 271.447 106.07 271.007 126.942 271.673C131.828 271.836 138.182 269.99 142.402 268.532C143.791 268.069 145.019 267.219 145.942 266.082C146.865 264.944 147.445 263.567 147.614 262.112C147.901 259.648 148.039 257.168 148.028 254.687C147.94 249.813 66.7237 252.112 61.1351 252.35C55.5465 252.589 49.3677 261.899 49.3677 261.899Z" fill="#110909"/>
<path d="M208.498 198.704C206.463 199.722 204.178 200.853 201.754 202.008C193.892 194.91 194.884 187.259 195.286 185.437C197.723 184.872 200.033 184.344 202.131 183.804C201.804 186.844 202.206 192.825 208.498 198.704Z" fill="#FCFCFA"/>
<path d="M236.102 180.475C234.846 181.354 230.325 184.118 227.637 186.329C224.95 188.54 218.959 194.558 213.597 194.382C213.597 194.382 212.956 196.192 208.297 198.516C202.947 193.49 201.578 188.39 202.105 183.816C204.039 183.474 205.93 182.923 207.744 182.171C214.551 179.181 216.812 176.14 220.19 174.432C223.568 172.723 226.645 171.165 227.185 171.743C227.344 172.011 227.406 172.326 227.361 172.635C227.361 172.635 234.03 169.054 235.675 168.753C237.32 168.451 237.232 170.524 237.232 170.524C237.232 170.524 239.43 169.268 240.572 170.524C241.715 171.781 240.321 173.263 238.965 174.042C239.239 174.523 239.323 175.089 239.199 175.629C239.076 176.169 238.755 176.643 238.299 176.957L236.956 177.849C237.085 178.322 237.073 178.823 236.921 179.29C236.77 179.756 236.485 180.168 236.102 180.475Z" fill="#EAA387"/>
<path d="M227.361 172.635C227.271 173.898 226.689 175.075 225.741 175.914C224.441 176.86 223.068 177.7 221.634 178.427C221.534 179.895 221.126 181.325 220.435 182.624C219.745 183.923 218.788 185.061 217.628 185.965" stroke="#141B25" stroke-width="0.56" stroke-linecap="round" stroke-linejoin="round"/>
<path d="M237.22 170.537C237.22 170.537 237.144 171.63 234.168 173.489C231.832 174.947 224.598 178.741 224.598 178.741" stroke="#141B25" stroke-width="0.56" stroke-linecap="round" stroke-linejoin="round"/>
<path d="M238.965 174.055L226.293 181.128" stroke="#141B25" stroke-width="0.56" stroke-linecap="round" stroke-linejoin="round"/>
<path d="M236.956 177.861L227.248 183.276" stroke="#141B25" stroke-width="0.56" stroke-linecap="round" stroke-linejoin="round"/>
<path d="M213.421 194.269C212.587 193.713 211.805 193.082 211.085 192.385" stroke="#141B25" stroke-width="0.56" stroke-linecap="round" stroke-linejoin="round"/>
<path d="M223.656 178.276C224.67 179.063 225.496 180.065 226.076 181.21C226.656 182.355 226.974 183.614 227.009 184.897" stroke="#141B25" stroke-width="0.56" stroke-linecap="round" stroke-linejoin="round"/>
<path d="M201.729 202.021C194.834 205.413 184.323 210.3 177.868 212.926C163.237 218.957 148.267 222.173 136.726 209.019C125.536 196.242 113.668 173.364 112.952 171.944V171.869L133.247 151.767C139.35 164.657 146.835 180.336 155.953 193.754C155.953 193.754 179.299 189.081 195.211 185.437C194.847 187.246 193.867 194.935 201.729 202.021Z" fill="#EFBC11"/>
<path d="M105.492 142.746C105.492 142.746 126.277 143.613 132.305 152.697C138.333 161.78 137.517 200.915 139.099 219.396C140.681 237.877 141.222 247.225 141.222 247.225C141.222 247.225 133.033 251.86 108.079 251.923C92.5436 251.897 77.0419 250.467 61.7632 247.652C61.7632 247.652 68.8839 213.429 65.6187 181.718C62.68 153.162 66.3973 145.573 71.4585 144.279C78.3783 142.52 86.1897 140.761 105.492 142.746Z" fill="white"/>
<path d="M129.856 101.639C129.856 101.639 128.763 108.951 125.8 110.433C122.836 111.916 123.288 100.257 123.288 100.257L129.856 101.639Z" fill="#110909"/>
<path d="M108.419 86.8766C120.286 86.7007 128.324 92.8442 127.52 103.209C126.478 116.74 129.291 119.466 127.244 125.22C124.996 131.502 119.043 134.58 109.963 134.241C98.1079 133.801 89.0029 126.514 89.2541 108.699C89.4927 92.2035 98.8112 87.0148 108.419 86.8766Z" fill="#EAA387"/>
<path d="M115.916 144.342C115.916 143.186 115.702 134.052 115.702 134.052L89.7563 116.099L90.8991 141.88L108.054 154.443C108.896 154.443 115.916 144.342 115.916 144.342Z" fill="#EAA387"/>
<path d="M115.715 134.053V139.555C102.83 139.97 98.6606 131.464 98.4346 130.949C101.885 133.087 105.855 134.238 109.913 134.279C111.798 134.368 113.687 134.267 115.552 133.977L115.715 134.053Z" fill="#110909"/>
<path d="M89.4424 113.662C89.4424 113.662 96.337 115.911 97.4924 106.124C97.4924 106.124 100.343 95.8218 113.04 99.6537C130.873 105.006 138.848 101.199 139.338 91.299C139.765 82.6427 134.578 78.2329 126.54 77.3786C122.773 76.9891 121.718 78.9239 120.839 78.635C119.357 78.2204 100.368 70.7074 91.8285 83.6604C91.8285 83.6604 78.7173 85.6831 80.8522 103.762C81.2403 106.883 82.2452 109.895 83.8084 112.624C85.3716 115.352 87.4617 117.742 89.9572 119.655L89.4424 113.662Z" fill="#110909"/>
<path d="M95.1692 110.609C95.1692 113.788 93.1346 116.288 90.5601 116.187C87.9856 116.087 85.8507 113.411 85.813 110.232C85.7753 107.054 87.8349 104.553 90.422 104.667C93.0091 104.78 95.1315 107.38 95.1692 110.609Z" fill="#EAA387"/>
<path d="M88.8647 107.858C88.7287 108.382 88.6976 108.929 88.7731 109.465C88.8485 110.002 89.0291 110.519 89.3044 110.986C89.5797 111.452 89.9443 111.86 90.3774 112.186C90.8106 112.511 91.3037 112.748 91.8285 112.883" stroke="#110909" stroke-width="0.49" stroke-linecap="round" stroke-linejoin="round"/>
<path d="M91.4017 108.637C90.8714 108.911 90.4262 109.326 90.1141 109.835C89.8021 110.344 89.6349 110.929 89.6309 111.526" stroke="#110909" stroke-width="0.49" stroke-linecap="round" stroke-linejoin="round"/>
<path d="M118.754 107.883L117.812 110.521L119.269 114.29C119.316 114.401 119.333 114.523 119.321 114.643C119.308 114.762 119.265 114.877 119.196 114.976C119.127 115.075 119.035 115.155 118.927 115.209C118.819 115.262 118.699 115.288 118.578 115.283L115.225 115.22" stroke="#431E19" stroke-width="0.4" stroke-linecap="round" stroke-linejoin="round"/>
<path d="M104.827 105.935C104.827 105.935 107.991 103.222 110.804 104.868" stroke="#110909" stroke-linecap="round" stroke-linejoin="round"/>
<path d="M120.839 105.031C120.839 105.031 122.723 104.001 125.599 106.865" stroke="#110909" stroke-linecap="round" stroke-linejoin="round"/>
<path d="M117.046 119.14C116.911 121.086 116.275 122.965 115.2 124.592C115.2 124.592 108.017 125.158 107.665 118.084C107.647 117.864 107.7 117.644 107.816 117.456C107.9 117.324 108.011 117.21 108.141 117.123C108.271 117.035 108.418 116.976 108.573 116.947C108.727 116.919 108.885 116.923 109.038 116.959C109.191 116.994 109.335 117.061 109.461 117.155C110.79 118.085 112.301 118.723 113.894 119.027C114.063 119.07 114.235 119.1 114.409 119.115C114.584 119.133 114.761 119.133 114.936 119.115C115.116 119.127 115.297 119.127 115.476 119.115C115.66 119.133 115.845 119.133 116.029 119.115C116.367 119.149 116.707 119.158 117.046 119.14Z" fill="#431E19"/>
<path d="M116.205 119.215C116.205 119.215 115.74 120.572 114.648 120.823C113.555 121.074 110.39 120.585 107.841 117.456C107.925 117.324 108.036 117.21 108.166 117.123C108.297 117.035 108.443 116.976 108.598 116.947C108.752 116.919 108.911 116.923 109.063 116.959C109.216 116.994 109.36 117.061 109.486 117.155C110.815 118.085 112.326 118.723 113.919 119.027C114.087 119.074 114.26 119.103 114.434 119.115C114.609 119.133 114.786 119.133 114.962 119.115C115.141 119.133 115.322 119.133 115.502 119.115C115.685 119.133 115.87 119.133 116.054 119.115L116.205 119.215Z" fill="white"/>
<path d="M114.673 124.605C113.617 124.62 112.569 124.41 111.601 123.987C110.633 123.565 109.766 122.94 109.059 122.155C109.971 121.668 111.027 121.525 112.035 121.753C112.671 121.983 113.242 122.362 113.7 122.858C114.159 123.355 114.493 123.953 114.673 124.605Z" fill="#7B2B23"/>
<path d="M110.629 110.081C110.637 110.325 110.596 110.568 110.507 110.795C110.418 111.023 110.284 111.229 110.112 111.402C109.94 111.575 109.734 111.711 109.508 111.802C109.282 111.892 109.039 111.935 108.795 111.928C108.287 111.916 107.801 111.713 107.436 111.359C107.07 111.005 106.852 110.527 106.823 110.019C106.815 109.775 106.856 109.532 106.945 109.305C107.034 109.077 107.168 108.871 107.34 108.698C107.512 108.525 107.718 108.389 107.944 108.298C108.171 108.208 108.413 108.165 108.657 108.172C109.165 108.184 109.651 108.387 110.016 108.741C110.382 109.095 110.6 109.573 110.629 110.081Z" fill="#110909"/>
<path d="M120.927 110.232C120.939 110.739 121.142 111.224 121.496 111.587C121.851 111.951 122.329 112.167 122.836 112.192C123.079 112.211 123.324 112.179 123.554 112.099C123.784 112.018 123.995 111.891 124.174 111.724C124.352 111.557 124.494 111.355 124.59 111.131C124.686 110.907 124.735 110.665 124.732 110.421C124.723 109.914 124.522 109.43 124.17 109.066C123.818 108.703 123.341 108.486 122.836 108.461C122.592 108.443 122.348 108.476 122.118 108.558C121.887 108.639 121.676 108.766 121.497 108.932C121.318 109.098 121.175 109.299 121.077 109.523C120.979 109.747 120.928 109.988 120.927 110.232Z" fill="#110909"/>
<path d="M105.065 156.152L104.061 222.336L112.739 232.387L121.266 222.613L110.177 156.302L105.065 156.152Z" fill="#DD3B5C"/>
<path d="M107.854 158.426C104.626 158.338 102.102 153.513 103.006 152.031C103.91 150.548 104.601 148.953 107.163 149.028C109.725 149.104 110.491 150.737 111.445 152.27C112.4 153.802 110.755 158.501 107.854 158.426Z" fill="#DD3B5C"/>
<path d="M115.815 141.528L107.15 149.066L113.856 154.091C113.856 154.091 116.443 147.42 116.644 144.292L115.815 141.528Z" fill="#DDF0F6"/>
<path d="M90.7485 138.6L107.15 149.078L100.557 154.883C97.9612 152.831 95.5067 150.606 93.21 148.224C91.317 146.36 89.6862 144.246 88.3623 141.942L90.7485 138.6Z" fill="#DDF0F6"/>
<path d="M141.825 217.977C146.132 234.862 149.159 253.155 147.639 260.429C147.639 260.429 142.54 257.539 138.572 258.494C130.723 260.391 127.621 258.117 127.621 258.117C127.621 258.117 132.293 194.408 116.645 144.317C121.74 145.405 126.651 147.224 131.225 149.719C139.2 154.204 138.07 180.123 138.07 180.123C138.07 180.123 137.542 201.066 141.825 217.977Z" fill="#EFBC11"/>
<path d="M128.161 245.189C128.161 245.189 103.043 245.189 93.1221 244.775L93.2978 254.599C93.2978 254.599 113.819 255.68 127.834 254.524C127.834 254.524 128.098 248.657 128.161 245.189Z" fill="#ECC565"/>
<path d="M117.46 255.491L104.199 255.366C103.59 255.36 103.007 255.118 102.571 254.692C102.136 254.266 101.882 253.688 101.863 253.079L101.75 246.797C101.746 246.501 101.803 246.206 101.915 245.932C102.028 245.657 102.195 245.408 102.406 245.199C102.617 244.991 102.867 244.827 103.143 244.717C103.419 244.607 103.714 244.554 104.01 244.561L117.26 244.724C117.871 244.727 118.457 244.967 118.895 245.394C119.333 245.82 119.588 246.4 119.608 247.011L119.721 253.293C119.719 253.586 119.659 253.877 119.544 254.147C119.429 254.417 119.262 254.661 119.051 254.866C118.841 255.071 118.592 255.232 118.319 255.339C118.046 255.446 117.754 255.498 117.46 255.491Z" fill="#C1554F"/>
<path d="M63.7099 254.851C63.7099 254.851 147.765 251.509 163.162 261.132C183.984 273.997 194.056 380.687 194.056 380.687C194.056 380.687 175.808 381.39 160.499 381.302C160.499 381.302 142.829 306.072 141.247 296.963C141.247 296.913 49.4434 312.881 63.7099 254.851Z" fill="#2A4579"/>
<path d="M141.058 256.057C151.105 257.099 159.306 258.682 163.161 261.082C170.232 265.454 176.071 280.694 180.743 298.886" stroke="#1C2D4D" stroke-width="0.56" stroke-linecap="round" stroke-linejoin="round"/>
<path d="M174.665 380.724L149.046 283.985C148.757 282.94 148.099 282.035 147.194 281.438C146.288 280.842 145.197 280.595 144.123 280.744C129.492 282.716 78.8179 287.566 78.5542 258.62" stroke="#1C2D4D" stroke-width="0.66" stroke-linecap="round" stroke-linejoin="round"/>
<path d="M13.0109 87.0776C13.35 84.3514 19.0642 85.6454 19.0642 85.6454L14.6938 95.1183C14.6938 95.1183 12.609 90.2939 13.0109 87.0776Z" fill="#141B25"/>
<path d="M22.3418 132.821C23.816 132.978 25.3067 132.817 26.7136 132.349C28.1205 131.882 29.4111 131.118 30.4985 130.11C31.5859 129.102 32.4449 127.873 33.0179 126.505C33.5909 125.137 33.8645 123.662 33.8204 122.18L32.5645 70.5188C32.5645 70.5188 34.6743 60.7821 36.1688 56.6236L36.7465 56.8749C36.7465 56.8749 38.0024 41.7987 38.2662 37.9542C38.5299 34.1098 38.1657 33.1927 36.621 32.9288C35.0763 32.665 34.1093 34.7254 33.1674 39.7383C32.6022 42.6781 31.9115 47.2135 31.5473 50.4549C31.3773 49.9254 31.0626 49.4541 30.6386 49.0944C30.2147 48.7347 29.6985 48.501 29.1486 48.4196C28.4568 48.2507 27.7295 48.3015 27.0679 48.5649C26.4062 48.8283 25.843 49.2913 25.4564 49.8896C25.4564 49.8896 24.954 48.4573 22.7311 48.6332C20.5082 48.8091 20.2194 50.2288 20.2194 50.2288C20.2194 50.2288 17.0797 49.8896 16.0625 52.0128C14.9448 54.3622 13.3875 62.2646 15.7109 66.5613C17.2933 69.5012 17.4565 71.1721 16.9667 74.8784C16.6528 77.4665 13.5759 104.189 11.7675 120.107C11.6172 121.638 11.7725 123.184 12.2241 124.655C12.6758 126.126 13.415 127.492 14.3987 128.675C15.3824 129.858 16.591 130.833 17.9545 131.545C19.3181 132.257 20.8093 132.691 22.3418 132.821Z" fill="#EAA387"/>
<path d="M33.4434 46.2462C34.4849 46.6103 35.5802 46.7972 36.6835 46.799" stroke="#141B25" stroke-width="0.28" stroke-linecap="round" stroke-linejoin="round"/>
<path d="M34.4233 39.663C35.241 39.9121 36.0831 40.0722 36.9351 40.1404" stroke="#141B25" stroke-width="0.28" stroke-linecap="round" stroke-linejoin="round"/>
<g style="mix-blend-mode:multiply" opacity="0.3">
<path d="M32.0496 60.1037L31.8863 61.2972C31.8863 61.2972 26.8629 60.7193 23.56 63.1441C21.6134 64.5512 16.6904 63.1441 15.7736 58.8976C15.4765 57.617 15.3373 56.3048 15.3592 54.9904C15.3592 54.9904 15.3592 58.2317 17.13 59.0232C18.9007 59.8147 20.0185 58.7469 20.0561 57.8297C20.3213 58.215 20.6756 58.5304 21.0889 58.7492C21.5022 58.9679 21.9621 59.0835 22.4297 59.0861C22.9136 59.0539 23.3791 58.8877 23.7739 58.6059C24.1687 58.324 24.4773 57.9378 24.6651 57.4905C24.8893 57.9258 25.2223 58.2957 25.6316 58.5643C26.0409 58.8328 26.5126 58.991 27.001 59.0232C28.6839 59.1363 28.7215 58.3448 28.7215 58.3448C29.5916 59.3018 30.769 59.9241 32.0496 60.1037Z" fill="#9D5652"/>
</g>
<path d="M25.5063 49.8896C25.5063 49.8896 23.9867 57.5283 25.004 62.0888" stroke="#141B25" stroke-width="0.26" stroke-linecap="round" stroke-linejoin="round"/>
<path d="M20.3073 50.3042C20.3073 50.3042 19.0515 56.0457 20.7092 60.556C20.8434 60.8785 21.0433 61.1694 21.2962 61.4102C21.5491 61.651 21.8493 61.8364 22.1778 61.9546C22.5064 62.0729 22.8559 62.1213 23.2041 62.0968C23.5524 62.0723 23.8918 61.9754 24.2005 61.8124" stroke="#141B25" stroke-width="0.26" stroke-linecap="round" stroke-linejoin="round"/>
<path d="M15.3845 54.7517C15.3845 54.7517 14.6812 62.4657 19.5037 61.0335" stroke="#141B25" stroke-width="0.26" stroke-linecap="round" stroke-linejoin="round"/>
<path d="M31.6477 50.6183C31.6477 50.6183 29.4751 58.0433 29.3369 61.2093" stroke="#141B25" stroke-width="0.26" stroke-linecap="round" stroke-linejoin="round"/>
<path d="M23.648 55.9955C22.8416 56.3171 21.9426 56.3171 21.1362 55.9955" stroke="#141B25" stroke-width="0.26" stroke-linecap="round" stroke-linejoin="round"/>
<path d="M27.7543 56.1588C27.0783 56.1969 26.4001 56.159 25.7324 56.0458" stroke="#141B25" stroke-width="0.26" stroke-linecap="round" stroke-linejoin="round"/>
<path d="M18.9009 56.0835C18.0766 56.292 17.2134 56.292 16.3892 56.0835" stroke="#141B25" stroke-width="0.26" stroke-linecap="round" stroke-linejoin="round"/>
<path d="M30.8564 71.2978C30.8564 71.2978 36.6334 69.4761 37.7009 64.4633C38.5172 60.6942 38.2409 56.4226 35.478 55.8196C32.9663 55.2668 30.4546 52.8294 28.3447 54.0858C26.0088 55.518 28.5833 59.7519 32.0495 60.1037L31.8863 61.2972C31.8863 61.2972 26.6618 60.4932 23.2836 63.3702C19.9053 66.2473 21.3119 69.8907 24.866 71.0465C26.7859 71.7622 28.8833 71.8502 30.8564 71.2978Z" fill="#EAA387"/>
<path d="M36.8219 56.5106C34.3102 55.9578 30.4673 52.9174 28.3448 54.0858C26.2224 55.2542 28.5835 59.752 32.0497 60.1038L31.8864 61.2973C31.8864 61.2973 26.662 60.4932 23.2837 63.3703" stroke="#141B25" stroke-width="0.26" stroke-linecap="round" stroke-linejoin="round"/>
<path d="M32.4764 70.6571C30.7241 71.0681 28.9129 71.1659 27.1265 70.9461" stroke="#141B25" stroke-width="0.26" stroke-linecap="round" stroke-linejoin="round"/>
<path d="M25.9083 70.8706C25.3194 70.8374 24.735 70.7491 24.1626 70.6068" stroke="#141B25" stroke-width="0.26" stroke-linecap="round" stroke-linejoin="round"/>
<path d="M91.954 191.983C90.6981 167.936 87.998 141.729 87.998 141.729C87.998 141.729 74.6356 142.985 64.8148 142.872C56.0237 142.709 34.1215 128.16 34.1215 128.16C34.222 122.494 33.6318 116.526 33.6946 112.293C33.7825 104.629 33.1043 91.4874 33.1043 91.4874C33.1043 91.4874 28.7214 102.367 20.9225 100.018C13.1236 97.6686 13.0105 87.0399 13.0105 87.0399C13.0105 87.0399 11.4784 105.709 9.24293 119.969C8.86527 122.362 8.61796 124.773 8.50202 127.193C8.50202 127.193 7.43452 129.278 8.95411 134.115C9.31997 136.21 10.1811 138.187 11.4658 139.882C16.3386 148.865 59.8792 177.824 59.8792 177.824C60.4821 188.126 58.8495 226.08 55.9233 237.928C53.8763 247.84 49.443 261.798 49.443 261.798C55.534 255.856 66.4474 261.183 76.7957 261.999C87.144 262.816 93.1219 257.464 93.1219 257.464C93.1219 257.464 93.2224 216.042 91.954 191.983Z" fill="#EFBC11"/>
<g style="mix-blend-mode:multiply" opacity="0.3">
<path d="M15.4723 88.9746C15.2588 90.7586 15.0453 92.6431 14.8066 94.5779C15.379 95.8664 16.2161 97.02 17.2633 97.9637C18.3105 98.9074 19.5445 99.6202 20.885 100.056C27.2271 101.953 31.3087 95.1433 32.6148 92.5175C25.4062 101.061 16.7909 93.6482 15.4723 88.9746Z" fill="#9D5652"/>
</g>
<path d="M67.6279 167.421C67.6279 167.421 75.0752 149.832 67.54 143.123" stroke="#C2980B" stroke-width="0.56" stroke-linecap="round" stroke-linejoin="round"/>
<path d="M96.2364 254.273C96.2364 254.273 102.943 272.352 88.8394 275.844" stroke="#1C2D4D" stroke-width="0.66" stroke-linecap="round" stroke-linejoin="round"/>
<path d="M134.201 153.727C134.201 153.727 138.12 160.876 138.107 178.088C138.098 189.052 138.841 200.003 140.33 210.866" stroke="#C2980B" stroke-width="0.56" stroke-linecap="round" stroke-linejoin="round"/>
<path d="M27.2397 241.47L49.4685 242.124C52.6224 242.195 55.6268 243.483 57.8529 245.719C60.0789 247.956 61.3542 250.966 61.4117 254.122V306.524" stroke="#2A2E44" stroke-width="8.48" stroke-linecap="round" stroke-linejoin="round"/>
<path d="M411.031 397.245L434.289 397.861L436.173 375.473L412.123 374.832L411.031 397.245Z" fill="#E1817F"/>
<path d="M436.173 375.473L412.123 374.832L411.771 382.106C422.861 387.132 435.344 385.272 435.344 385.272L436.173 375.473Z" fill="#141B25"/>
<path d="M437.743 393.288V412.007H394.165C394.165 412.007 393.21 400.21 398.485 397.836C401.094 396.783 403.551 395.389 405.794 393.69C405.794 393.69 405.982 385.071 413.329 385.071C422.258 385.071 421.228 392.76 421.228 392.76C431.024 396.793 429.429 393.439 433.272 391.052C433.694 390.769 434.183 390.603 434.69 390.571C435.197 390.539 435.703 390.642 436.157 390.869C436.611 391.097 436.997 391.44 437.276 391.865C437.554 392.29 437.716 392.781 437.743 393.288Z" fill="#9C335F"/>
<path d="M399.163 397.534C399.163 397.534 406.371 392.71 412.638 398.464" stroke="#141B25" stroke-width="0.39" stroke-linecap="round" stroke-linejoin="round"/>
<path d="M412.638 399.909C413.256 399.909 413.756 399.448 413.756 398.879C413.756 398.31 413.256 397.848 412.638 397.848C412.021 397.848 411.521 398.31 411.521 398.879C411.521 399.448 412.021 399.909 412.638 399.909Z" fill="#141B25"/>
<path d="M404.626 394.406C404.626 394.406 410.378 389.582 416.645 395.348" stroke="#141B25" stroke-width="0.39" stroke-linecap="round" stroke-linejoin="round"/>
<path d="M416.644 396.781C417.261 396.781 417.762 396.319 417.762 395.75C417.762 395.181 417.261 394.72 416.644 394.72C416.027 394.72 415.526 395.181 415.526 395.75C415.526 396.319 416.027 396.781 416.644 396.781Z" fill="#141B25"/>
<path d="M394.165 411.995H437.743V407.648H394.177C394.068 409.095 394.064 410.548 394.165 411.995Z" fill="#141B25"/>
<path d="M348.954 395.763L372.212 396.366L374.096 373.978L350.046 373.35L348.954 395.763Z" fill="#E1817F"/>
<path d="M374.937 393.175L376.118 412.02L328.671 412.133C328.671 412.133 327.089 399.683 331.698 397.484C335.643 395.837 339.729 394.55 343.905 393.64C343.905 393.64 342.586 385.687 349.242 385.674C355.899 385.662 353.864 392.76 353.864 392.76C362.982 396.454 367.465 393.351 370.768 391.139C371.162 390.898 371.611 390.759 372.073 390.737C372.535 390.715 372.995 390.81 373.411 391.013C373.826 391.216 374.184 391.52 374.451 391.898C374.718 392.276 374.885 392.715 374.937 393.175Z" fill="#9C335F"/>
<path d="M343.302 393.816C343.302 393.816 345.952 394.268 346.819 398.087" stroke="#141B25" stroke-width="0.35" stroke-linecap="round" stroke-linejoin="round"/>
<path d="M345.839 398.464C345.867 398.727 345.991 398.971 346.189 399.147C346.386 399.323 346.642 399.42 346.906 399.419C347.032 399.424 347.158 399.403 347.276 399.357C347.394 399.311 347.5 399.24 347.589 399.151C347.678 399.061 347.747 398.953 347.791 398.835C347.836 398.717 347.855 398.59 347.848 398.464C347.82 398.199 347.693 397.953 347.493 397.777C347.294 397.6 347.035 397.505 346.768 397.509C346.642 397.504 346.517 397.525 346.4 397.571C346.283 397.617 346.177 397.688 346.089 397.778C346.001 397.868 345.934 397.976 345.891 398.094C345.847 398.212 345.83 398.338 345.839 398.464Z" fill="#141B25"/>
<path d="M337.575 395.298C337.575 395.298 340.225 395.75 341.092 399.57" stroke="#141B25" stroke-width="0.35" stroke-linecap="round" stroke-linejoin="round"/>
<path d="M340.112 399.959C340.14 400.222 340.265 400.466 340.462 400.642C340.659 400.818 340.915 400.915 341.18 400.914C341.306 400.918 341.433 400.895 341.55 400.847C341.668 400.8 341.774 400.728 341.863 400.637C341.951 400.546 342.02 400.438 342.065 400.319C342.109 400.2 342.128 400.073 342.121 399.946C342.093 399.682 341.966 399.438 341.766 399.264C341.566 399.089 341.307 398.996 341.041 399.004C340.916 398.999 340.79 399.02 340.673 399.066C340.556 399.112 340.45 399.183 340.363 399.273C340.275 399.363 340.207 399.471 340.164 399.589C340.121 399.707 340.103 399.833 340.112 399.959Z" fill="#141B25"/>
<path d="M328.671 412.133L376.13 412.033L375.841 408.012L328.382 408.125C328.388 409.466 328.485 410.805 328.671 412.133Z" fill="#141B25"/>
<path d="M374.096 373.965L350.046 373.35L349.682 380.624C349.682 380.624 357.317 385.737 373.417 382.018L374.096 373.965Z" fill="#141B25"/>
<path d="M425.712 146.855C425.712 146.855 442.138 163.451 439.2 188.314C436.261 213.177 429.793 246.973 430.999 261.333C432.204 275.693 439.664 312.592 439.413 378.475C439.413 378.475 417.134 382.848 408.695 377.508C408.695 377.508 403.018 320.005 398.886 297.868C394.755 275.731 391.665 262.326 391.678 245.516C391.678 245.516 384.444 272.301 383.778 281.674C382.359 301.524 380.149 376.855 380.149 376.855C380.149 376.855 356.2 383.526 348.413 373.186C348.413 373.186 345.286 284.928 346.09 260.014C346.643 242.601 371.622 154.481 371.622 154.481L425.712 146.855Z" fill="#66306B"/>
<path d="M436.499 162.547C436.499 162.547 403.169 181.128 367.691 168.527" stroke="#3E1F41" stroke-width="0.42" stroke-linecap="round" stroke-linejoin="round"/>
<path d="M422.76 168.175C425.087 181.954 425.159 196.021 422.974 209.823C415.803 255.052 417.222 261.811 421.429 279.111C426.088 298.245 432.066 345.258 432.531 379.305" stroke="#3E1F41" stroke-width="0.42" stroke-linecap="round" stroke-linejoin="round"/>
<path d="M413.191 170.7C413.191 170.7 414.66 185.776 424.494 189.043" stroke="#3E1F41" stroke-width="0.42" stroke-linecap="round" stroke-linejoin="round"/>
<path d="M371.848 172.447C371.848 172.447 370.039 181.153 364.752 182.95" stroke="#3E1F41" stroke-width="0.42" stroke-linecap="round" stroke-linejoin="round"/>
<path d="M387.194 164.192C387.194 164.192 384.532 178.603 388.325 201.255C390.836 216.067 390.309 219.748 391.678 245.466" stroke="#3E1F41" stroke-width="0.42" stroke-linecap="round" stroke-linejoin="round"/>
<path d="M375.038 67.667C368.947 68.9233 362.793 71.436 360.57 77.7178C358.347 83.9995 348.2 111.514 345.098 124.09C341.996 136.666 343.013 146.277 355.145 147.583C363.321 148.45 367.804 139.844 367.804 136C366.155 136.504 364.415 136.64 362.708 136.399C361 136.158 359.366 135.546 357.921 134.605C352.257 131.201 352.257 121.564 358.938 117.82L365.531 111.602L375.038 67.667Z" fill="#E28A13"/>
<path d="M372.287 130.045L380.589 66.9006C380.589 66.9006 408.054 65.8327 414.761 66.3478C414.761 66.3478 423.815 154.292 423.313 161.592C423.313 161.592 393.763 168.552 366.159 160.712C366.159 160.712 371.446 142.445 372.287 130.045Z" fill="#FCF183"/>
<path d="M410.93 124.542C397.719 120.107 391.188 115.195 381.455 120.157C375.176 123.361 371.785 125.56 371.785 125.56C371.785 125.56 394.755 122.331 409.913 126.326C425.071 130.321 415.539 126.087 410.93 124.542Z" fill="#E09680"/>
<path d="M409.85 66.0463C409.85 66.0463 403.671 81.713 405.593 106.966C407.514 132.218 416.895 158.966 411.131 187.008C411.131 187.008 428.638 190.551 435.545 183.804C442.452 177.057 445.441 179.645 445.441 179.645C445.441 179.645 440.694 152.295 436.223 142.294C432.409 133.44 431.435 123.621 433.435 114.19C435.771 101.827 436.989 99.2516 436.989 89.2887C436.989 89.2887 435.432 70.343 426.553 68.1318C421.058 66.9459 415.468 66.248 409.85 66.0463Z" fill="#E28A13"/>
<path d="M353.462 178.377C353.462 178.377 358.925 186.354 368.796 184.269C368.796 184.269 374.284 156.629 376.997 132.683C379.333 112.117 384.03 66.4484 382.949 66.6368C380.061 67.1519 378.165 66.8504 375.063 67.667C373.945 70.8582 372.727 80.4692 370.177 86.0097C365.995 95.1183 360.608 99.5281 362.718 109.742C363.973 115.936 368.608 121.816 369.688 122.469C369.688 122.469 368.532 137.545 364.313 149.581C359.164 164.205 353.462 178.377 353.462 178.377Z" fill="#E28A13"/>
<path d="M393.486 132.382L373.204 144.392C373.063 144.481 372.905 144.542 372.74 144.569C372.575 144.596 372.407 144.591 372.244 144.552C372.082 144.513 371.928 144.443 371.793 144.344C371.659 144.245 371.545 144.121 371.459 143.978C367.691 137.796 348.853 107.079 346.253 101.111C345.625 99.6914 362.039 90.5577 367.327 87.7812C367.615 87.6224 367.955 87.5834 368.272 87.6727C368.589 87.762 368.859 87.9725 369.022 88.2586L393.964 130.635C394.05 130.78 394.106 130.942 394.129 131.109C394.152 131.277 394.141 131.447 394.096 131.61C394.052 131.773 393.975 131.925 393.87 132.058C393.765 132.191 393.635 132.301 393.486 132.382Z" fill="#A8287D"/>
<path d="M400.469 123.7L376.607 137.771C376.334 137.947 376.004 138.009 375.685 137.946C375.367 137.883 375.085 137.699 374.899 137.432C371.019 131.829 356.614 107.569 351.038 97.3545C351.038 97.3545 371.031 85.3187 376.319 82.5296C376.591 82.3767 376.91 82.3307 377.214 82.4004C377.518 82.47 377.785 82.6505 377.964 82.9065L400.984 122.029C401.132 122.32 401.161 122.657 401.064 122.969C400.968 123.281 400.755 123.543 400.469 123.7Z" fill="#CF4694"/>
<path d="M401.737 123.311V123.235C401.644 123.119 401.508 123.045 401.36 123.028C401.211 123.012 401.063 123.055 400.946 123.147L373.531 139.304C371.559 140.46 370.68 142.608 371.546 144.091C372.425 145.586 374.724 145.85 376.695 144.681L404.061 128.525C404.197 128.464 404.304 128.353 404.36 128.215C404.416 128.076 404.417 127.922 404.362 127.783C404.266 127.67 404.131 127.598 403.984 127.581C403.837 127.565 403.689 127.606 403.571 127.695L402.729 128.198L400.582 124.542L401.423 124.039C401.561 123.984 401.671 123.876 401.729 123.739C401.788 123.603 401.791 123.449 401.737 123.311Z" fill="#CF4694"/>
<path d="M403.42 127.783L376.507 143.689C375.989 144.088 375.336 144.269 374.686 144.194C374.036 144.119 373.442 143.794 373.028 143.287C372.789 142.679 372.796 142.003 373.046 141.4C373.297 140.797 373.773 140.316 374.372 140.058L401.285 124.165L403.42 127.783Z" fill="white"/>
<path d="M374.359 140.033C373.76 140.291 373.285 140.772 373.034 141.375C372.783 141.977 372.776 142.654 373.016 143.262L373.166 143.475C373.028 142.883 373.098 142.262 373.363 141.716C373.628 141.169 374.073 140.73 374.623 140.472L401.536 124.58L401.26 124.115L374.359 140.033Z" fill="#E7A8D1"/>
<path d="M380.438 101.538L366.699 109.453C366.364 108.903 365.831 108.502 365.209 108.334C364.587 108.165 363.925 108.242 363.358 108.549L360.081 102.857C360.36 102.7 360.605 102.488 360.802 102.235C360.999 101.981 361.144 101.691 361.228 101.382C361.312 101.072 361.334 100.749 361.292 100.43C361.25 100.112 361.146 99.8055 360.985 99.528L374.724 91.613C375.059 92.1635 375.592 92.5644 376.214 92.7327C376.835 92.9011 377.498 92.8241 378.064 92.5176L381.342 98.1963C381.063 98.3553 380.817 98.5682 380.62 98.8226C380.423 99.077 380.278 99.368 380.194 99.6787C380.11 99.9895 380.088 100.314 380.13 100.633C380.172 100.952 380.277 101.26 380.438 101.538Z" fill="white"/>
<path d="M375.038 141.628C375.402 141.289 400.682 126.464 400.682 126.464" stroke="#1E334C" stroke-width="0.42" stroke-linecap="round" stroke-linejoin="round"/>
<path d="M375.753 142.834C376.118 142.483 401.398 127.67 401.398 127.67" stroke="#1E334C" stroke-width="0.42" stroke-linecap="round" stroke-linejoin="round"/>
<path d="M354.806 122.368C354.806 122.368 343.629 142.143 357.971 146.164C365.996 148.425 367.867 136.113 367.867 136.113C367.867 136.113 355.999 136.276 354.806 122.368Z" fill="#141B25"/>
<path d="M395.709 104.591C395.043 106.941 393.926 108.36 392.469 107.971L391.665 106.174C391.281 108.298 390.306 110.271 388.852 111.865C387.885 112.871 385.084 113.8 383.263 115.634C381.442 117.469 372.614 129.882 367.841 136.1C367.841 136.1 360.306 141.666 354.479 137.143C350.159 133.789 352.47 124.831 356.099 120.346L358.611 118.16C359.415 117.456 360.294 116.665 361.185 115.836L361.977 115.119C363.031 114.152 364.099 113.134 365.154 112.117C365.317 111.979 365.455 111.828 365.606 111.69C368.056 109.4 370.304 106.903 372.325 104.227C376.092 98.925 379.621 92.3543 380.337 91.5251C381.894 89.6657 388.563 89.8919 389.857 90.6959C391.15 91.5 390.874 94.2891 390.874 94.2891C391.24 94.3505 391.588 94.4923 391.893 94.7043C392.198 94.9164 392.451 95.1933 392.636 95.5153C392.821 95.8373 392.933 96.1963 392.962 96.5665C392.992 96.9366 392.939 97.3088 392.808 97.6561C393.168 97.7617 393.503 97.9405 393.791 98.1816C394.079 98.4226 394.314 98.7205 394.481 99.0567C394.649 99.3929 394.745 99.7601 394.764 100.135C394.783 100.51 394.724 100.885 394.591 101.237C395.119 101.596 395.515 102.119 395.717 102.725C395.919 103.331 395.916 103.987 395.709 104.591Z" fill="#EAA387"/>
<path d="M391.615 106.438C391.615 106.438 391.176 106.438 393.16 105.282" stroke="#1E334C" stroke-width="0.42" stroke-linecap="round" stroke-linejoin="round"/>
<path d="M385.084 94.0127C387.038 93.9652 388.993 94.0449 390.937 94.2514" stroke="#1E334C" stroke-width="0.42" stroke-linecap="round" stroke-linejoin="round"/>
<path d="M392.808 97.6183C392.808 97.6183 390.296 97.543 388.262 97.6183" stroke="#1E334C" stroke-width="0.42" stroke-linecap="round" stroke-linejoin="round"/>
<path d="M394.592 101.199C393.044 101.157 391.496 101.22 389.958 101.387" stroke="#1E334C" stroke-width="0.42" stroke-linecap="round" stroke-linejoin="round"/>
<path d="M429.856 142.269C428.161 154.179 418.817 153.199 418.817 153.199C410.353 147.91 414.007 128.851 421.329 128.487H421.505C422.396 128.751 431.551 130.572 429.856 142.269Z" fill="#141B25"/>
<path d="M424.016 129.153C416.129 126.979 413.969 127.67 408.381 126.313C405.932 125.723 404.852 125.547 399.59 124.605C393.486 123.524 388.387 122.331 386.34 121.363C384.519 120.509 382.573 123.575 386.541 125.132C386.541 125.132 384.858 124.705 384.846 126.854C384.846 128.537 387.094 129.668 387.094 129.668C387.094 129.668 386.051 131.791 388.639 133.349C388.787 134.785 389.442 136.121 390.485 137.118C392.095 138.923 394.229 140.18 396.588 140.711C398.66 141.189 407.778 141.138 409.913 141.968C412.048 142.797 426.729 147.659 426.729 147.659C426.729 147.659 429.831 146.779 429.831 139.518C429.834 137.436 429.3 135.388 428.282 133.573C427.263 131.757 425.794 130.235 424.016 129.153Z" fill="#EAA387"/>
<path d="M386.566 125.095C389.883 126.812 393.373 128.173 396.977 129.153" stroke="#1E334C" stroke-width="0.42" stroke-linecap="round" stroke-linejoin="round"/>
<path d="M387.119 129.63C390.171 131.544 393.495 132.984 396.978 133.902" stroke="#1E334C" stroke-width="0.42" stroke-linecap="round" stroke-linejoin="round"/>
<path d="M388.664 133.311C388.664 133.311 393.838 137.495 396.349 138.023" stroke="#1E334C" stroke-width="0.42" stroke-linecap="round" stroke-linejoin="round"/>
<path d="M448.493 143.098C443.783 153.714 418.817 153.149 418.817 153.149C423.991 152.998 426.716 150.473 428.6 142.043C431.024 131.163 422.396 128.7 421.442 128.449L433.624 130.434C433.624 130.434 425.335 103.938 425.335 90.0174C425.308 82.8594 426.366 75.7386 428.474 68.8982C432.92 70.833 442.741 76.0971 444.148 82.718C445.554 89.339 453.19 132.482 448.493 143.098Z" fill="#E28A13"/>
<path d="M399.753 119.906C399.753 119.906 401.448 122.482 401.009 123.034C401.138 123.005 401.274 123.015 401.397 123.065C401.521 123.114 401.626 123.2 401.699 123.311C401.938 123.688 401.235 124.14 401.235 124.14L400.218 124.73L401.75 125.007L405.856 125.735C405.856 125.735 403.646 120.873 399.753 119.906Z" fill="#EAA387"/>
<path d="M421.504 128.499L433.686 130.484C433.686 130.484 425.322 107.305 425.398 89.0249" stroke="#CC7908" stroke-width="0.42" stroke-linecap="round" stroke-linejoin="round"/>
<path d="M399.904 5.0756C399.904 5.0756 394.667 -1.33179 381.807 0.339159C368.947 2.0101 365.82 20.1016 365.481 27.1999C365.141 34.2983 364.878 38.9342 360.457 44.4622C355.748 50.3168 354.856 63.5336 354.856 63.5336C354.856 63.5336 358.724 64.7145 364.426 65.8955C364.872 62.7119 365.677 59.589 366.824 56.586C366.394 59.9178 366.263 63.2816 366.435 66.6368C366.435 66.6368 373.506 69.1495 392.419 69.1495C408.192 69.1495 414.534 66.4106 414.534 66.4106C414.534 66.4106 417.322 59.2369 416.142 54.8522C416.142 54.8522 418.654 61.536 418.403 65.8076C418.403 65.8076 426.013 63.722 429.04 59.9153C428.848 53.7265 427.122 47.6824 424.016 42.3264C419.382 34.7883 418.202 28.8332 417.737 20.3403C417.134 9.58589 411.232 3.31671 399.904 5.0756Z" fill="#66306B"/>
<path d="M410.302 69.1494L411.144 39.7131L383.515 58.2066V67.4282C383.515 76.097 382.158 83.7608 388.111 84.6905C396.387 86.0599 406.648 78.8484 410.302 69.1494Z" fill="#EAA387"/>
<path d="M390.723 6.92239C377.964 6.13089 369.374 12.4755 370.391 23.9334C370.67 26.9736 370.775 30.0274 370.705 33.0796C370.516 40.4669 369.261 43.2686 370.969 48.0804C373.48 55.1034 379.91 58.684 389.656 58.684C402.403 58.684 412.098 51.1459 411.596 31.6976C411.144 13.669 401.046 7.58826 390.723 6.92239Z" fill="#EAA387"/>
<path d="M383.477 58.1941V64.2246C397.292 65.1794 401.712 56.0709 401.951 55.5055C398.231 57.7065 393.964 58.8086 389.643 58.6841C387.612 58.7022 385.584 58.517 383.59 58.1313L383.477 58.1941Z" fill="#141B25"/>
<path d="M370.303 23.9208C370.303 24.6118 370.491 25.2651 370.542 25.9058C373.217 23.0791 378.29 22.9911 383.364 22.9911C389.103 22.9911 392.72 15.5912 392.72 15.5912C392.784 17.5641 393.438 19.4725 394.598 21.0695C395.757 22.6665 397.37 23.8786 399.225 24.549C403.696 26.1194 400.946 34.3108 405.756 36.0823C407.611 36.6098 409.529 36.8845 411.458 36.8989C411.686 35.0986 411.808 33.2862 411.822 31.4715C411.382 13.4554 401.185 7.23649 390.849 6.59575C378.115 5.81681 369.298 12.4755 370.303 23.9208Z" fill="#66306B"/>
<path d="M405.266 33.4188C405.266 36.8738 407.527 39.7006 410.29 39.7006C413.052 39.7006 415.313 36.8864 415.313 33.4188C415.313 29.9513 413.052 27.1371 410.29 27.1371C407.527 27.1371 405.266 29.9513 405.266 33.4188Z" fill="#EAA387"/>
<path d="M412.01 30.7428C412.01 30.7428 413.065 35.0898 408.883 36.0823" stroke="#141B25" stroke-width="0.45" stroke-linecap="round" stroke-linejoin="round"/>
<path d="M409.297 31.459C409.874 31.7804 410.357 32.2479 410.696 32.8146C411.036 33.3813 411.22 34.0273 411.231 34.6878" stroke="#141B25" stroke-width="0.45" stroke-linecap="round" stroke-linejoin="round"/>
<path d="M380.237 31.3082L381.254 34.1224L379.822 38.0674C379.781 38.1871 379.768 38.3149 379.785 38.4405C379.802 38.5661 379.849 38.6858 379.921 38.7899C379.993 38.894 380.089 38.9796 380.201 39.0396C380.312 39.0996 380.437 39.1324 380.563 39.1353H384.029" stroke="#421D19" stroke-width="0.41" stroke-linecap="round" stroke-linejoin="round"/>
<path d="M394.604 29.788C394.604 29.788 391.289 26.8104 388.413 28.4437" stroke="#141B25" stroke-width="1.03" stroke-linecap="round" stroke-linejoin="round"/>
<path d="M378.026 28.2301C378.026 28.2301 376.067 27.0617 373.141 29.9765" stroke="#141B25" stroke-width="1.03" stroke-linecap="round" stroke-linejoin="round"/>
<path d="M382.221 43.2309C382.397 45.3029 383.088 47.298 384.231 49.0353C384.231 49.0353 391.665 49.877 391.879 42.452C391.888 42.2174 391.827 41.9854 391.703 41.7861C391.523 41.5169 391.247 41.3274 390.931 41.2572C390.615 41.187 390.284 41.2414 390.008 41.4092C388.638 42.3407 387.083 42.9624 385.449 43.2309H384.921C384.738 43.2559 384.552 43.2559 384.369 43.2309H383.816C383.624 43.2494 383.431 43.2494 383.239 43.2309C382.9 43.2618 382.56 43.2618 382.221 43.2309Z" fill="#421C19"/>
<path d="M383.088 43.3314C383.088 43.3314 383.59 44.7888 384.721 45.0903C385.851 45.3918 389.129 44.9772 391.703 41.7861C391.524 41.5169 391.247 41.3274 390.931 41.2572C390.615 41.187 390.284 41.2414 390.008 41.4092C388.639 42.3407 387.083 42.9624 385.449 43.2309C385.273 43.2432 385.097 43.2432 384.921 43.2309C384.738 43.2559 384.552 43.2559 384.369 43.2309C384.185 43.2494 384 43.2494 383.816 43.2309C383.624 43.2494 383.431 43.2494 383.239 43.2309C383.2 43.2791 383.147 43.3142 383.088 43.3314Z" fill="white"/>
<path d="M384.783 49.0479C385.858 49.1052 386.932 48.9217 387.927 48.511C388.922 48.1002 389.813 47.4724 390.535 46.6734C389.605 46.1376 388.514 45.9506 387.458 46.1457C386.806 46.3679 386.219 46.7498 385.752 47.2567C385.285 47.7636 384.952 48.3793 384.783 49.0479Z" fill="#7A2823"/>
<path d="M388.689 33.9716C388.681 34.3622 388.79 34.7462 389.001 35.0749C389.212 35.4036 389.516 35.6622 389.874 35.818C390.232 35.9738 390.628 36.0197 391.012 35.9499C391.397 35.8801 391.751 35.6978 392.032 35.426C392.312 35.1542 392.506 34.8053 392.588 34.4233C392.67 34.0414 392.637 33.6438 392.493 33.2807C392.348 32.9177 392.1 32.6057 391.778 32.3843C391.456 32.1628 391.076 32.0419 390.686 32.0369C390.427 32.0319 390.171 32.078 389.93 32.1727C389.69 32.2674 389.47 32.4087 389.285 32.5886C389.099 32.7684 388.951 32.9832 388.849 33.2206C388.746 33.4579 388.692 33.7132 388.689 33.9716Z" fill="#141B25"/>
<path d="M393.687 33.0546C393.687 33.0546 392.62 33.9968 391.703 33.2305" stroke="#141B25" stroke-width="1.03" stroke-linecap="round" stroke-linejoin="round"/>
<path d="M378.027 33.6953C377.996 34.1908 377.779 34.6564 377.42 34.9992C377.061 35.342 376.586 35.5369 376.09 35.5448C375.594 35.5527 375.113 35.3732 374.743 35.042C374.374 34.7108 374.142 34.2523 374.096 33.7581C374.07 33.4873 374.101 33.2141 374.186 32.9557C374.271 32.6974 374.408 32.4594 374.59 32.2567C374.771 32.0541 374.992 31.8912 375.24 31.7782C375.487 31.6653 375.755 31.6047 376.027 31.6003C376.299 31.596 376.569 31.648 376.82 31.753C377.071 31.858 377.297 32.0137 377.485 32.2105C377.673 32.4072 377.818 32.6407 377.911 32.8962C378.004 33.1517 378.043 33.4238 378.027 33.6953Z" fill="#141B25"/>
<path d="M373.028 32.8158C373.028 32.8158 374.096 33.7581 375.013 33.0042" stroke="#141B25" stroke-width="1.03" stroke-linecap="round" stroke-linejoin="round"/>
<path d="M264.685 256.295H333.004V260.806C333.004 262.165 332.464 263.469 331.503 264.43C330.542 265.392 329.239 265.932 327.88 265.932H269.809C268.45 265.932 267.147 265.392 266.186 264.43C265.225 263.469 264.685 262.165 264.685 260.806V256.295Z" fill="#A55A09"/>
<path d="M261.194 412.962C260.787 412.9 260.397 412.757 260.046 412.543C259.695 412.329 259.39 412.047 259.148 411.714C258.907 411.381 258.733 411.004 258.638 410.603C258.543 410.203 258.528 409.788 258.594 409.382L276.628 261.132C276.761 260.314 277.212 259.582 277.882 259.094C278.553 258.607 279.389 258.405 280.208 258.532C281.026 258.665 281.758 259.115 282.245 259.786C282.732 260.457 282.934 261.293 282.807 262.112L264.773 410.362C264.709 410.768 264.565 411.157 264.351 411.507C264.136 411.858 263.854 412.162 263.522 412.404C263.19 412.645 262.813 412.819 262.414 412.915C262.014 413.011 261.6 413.027 261.194 412.962Z" fill="#A55A09"/>
<path d="M335.051 412.962C335.457 412.898 335.846 412.754 336.196 412.54C336.546 412.325 336.851 412.043 337.092 411.711C337.334 411.378 337.507 411.001 337.603 410.602C337.699 410.202 337.715 409.788 337.651 409.382L319.616 261.132C319.484 260.314 319.033 259.582 318.362 259.094C317.692 258.607 316.856 258.405 316.037 258.532C315.227 258.676 314.506 259.134 314.031 259.807C313.556 260.48 313.365 261.312 313.5 262.125L331.535 410.374C331.668 411.179 332.11 411.9 332.767 412.384C333.424 412.867 334.243 413.075 335.051 412.962Z" fill="#A55A09"/>
<path d="M327.943 351.15H269.734V358.851H327.943V351.15Z" fill="#A55A09"/>
<path d="M360.897 256.346H5.2872C3.8838 256.342 2.539 255.782 1.54783 254.788C0.556649 253.794 -3.94027e-06 252.448 0 251.044C0.00331653 249.642 0.561453 248.299 1.55227 247.307C2.54309 246.316 3.88597 245.758 5.2872 245.755H360.897C362.3 245.755 363.646 246.311 364.64 247.303C365.633 248.295 366.193 249.64 366.196 251.044C366.196 252.45 365.638 253.799 364.644 254.793C363.65 255.787 362.302 256.346 360.897 256.346Z" fill="#E28A13"/>
<path opacity="0.47" d="M360.897 251.044H5.2872C4.36049 251.046 3.44972 250.803 2.64701 250.339C1.8443 249.876 1.1781 249.209 0.715851 248.406C0.250558 249.209 0.00503512 250.121 0.00391013 251.05C0.00278515 251.979 0.246067 252.891 0.709412 253.696C1.17276 254.501 1.83982 255.17 2.64341 255.635C3.447 256.1 4.35882 256.345 5.2872 256.346H360.897C361.826 256.347 362.74 256.104 363.545 255.639C364.35 255.175 365.019 254.507 365.484 253.702C365.949 252.897 366.193 251.983 366.193 251.053C366.192 250.123 365.946 249.21 365.481 248.406C365.015 249.209 364.347 249.876 363.542 250.339C362.737 250.802 361.825 251.045 360.897 251.044Z" fill="#A55A09"/>
<path d="M28.8848 256.295H97.2036V260.806C97.2036 262.165 96.6637 263.469 95.7028 264.43C94.7419 265.392 93.4386 265.932 92.0797 265.932H33.9836C32.6376 265.925 31.3483 265.389 30.3942 264.439C29.4402 263.49 28.8979 262.202 28.8848 260.856V256.295Z" fill="#A55A09"/>
<path d="M25.3683 412.962C24.9626 412.898 24.5734 412.754 24.2232 412.54C23.8729 412.325 23.5684 412.043 23.327 411.711C23.0855 411.378 22.9119 411.001 22.8162 410.602C22.7204 410.202 22.7043 409.788 22.7687 409.382L40.8028 261.132C40.9356 260.314 41.3864 259.582 42.0569 259.094C42.7273 258.607 43.5632 258.405 44.3821 258.532C44.7879 258.596 45.1769 258.74 45.5272 258.954C45.8775 259.169 46.1821 259.451 46.4235 259.783C46.6649 260.116 46.8384 260.493 46.9342 260.892C47.03 261.292 47.0462 261.706 46.9817 262.112L28.9475 410.362C28.8833 410.768 28.7398 411.157 28.5252 411.507C28.3105 411.858 28.0289 412.162 27.6966 412.404C27.3642 412.645 26.9875 412.819 26.588 412.915C26.1885 413.011 25.7741 413.027 25.3683 412.962Z" fill="#A55A09"/>
<path d="M99.2255 412.962C99.632 412.9 100.022 412.757 100.373 412.543C100.724 412.329 101.029 412.047 101.271 411.714C101.513 411.381 101.686 411.004 101.781 410.603C101.876 410.203 101.891 409.788 101.825 409.382L83.791 261.132C83.6582 260.314 83.2075 259.582 82.537 259.094C81.8665 258.607 81.0307 258.405 80.2118 258.532C79.3938 258.665 78.6616 259.115 78.1746 259.786C77.6876 260.457 77.4854 261.293 77.6121 262.112L95.6463 410.362C95.7106 410.768 95.8541 411.157 96.0687 411.507C96.2833 411.858 96.5649 412.162 96.8973 412.404C97.2297 412.645 97.6064 412.819 98.0058 412.915C98.4053 413.011 98.8198 413.027 99.2255 412.962Z" fill="#A55A09"/>
<path d="M92.13 351.15H33.9209V358.851H92.13V351.15Z" fill="#A55A09"/>
<path d="M278.261 166.793C266.079 170.864 277.52 213.881 292.352 213.881C307.183 213.881 291.611 162.346 278.261 166.793Z" fill="#42756B"/>
<path d="M280.12 171.24C280.12 171.24 292.352 195.714 292.352 213.881V225.552" stroke="#110909" stroke-width="0.6" stroke-linecap="round" stroke-linejoin="round"/>
<path d="M308.803 184.596C317.368 187.447 309.318 217.688 298.907 217.688C288.496 217.688 299.422 181.467 308.803 184.596Z" fill="#4B8477"/>
<path d="M307.497 187.724C307.497 187.724 298.907 204.923 298.907 217.688V225.892" stroke="#110909" stroke-width="0.6" stroke-linecap="round" stroke-linejoin="round"/>
<path d="M276.741 184.596C268.176 187.447 276.214 217.688 286.638 217.688C297.061 217.688 286.11 181.467 276.741 184.596Z" fill="#519074"/>
<path d="M278.047 187.724C278.047 187.724 286.637 204.923 286.637 217.688V225.892" stroke="#110909" stroke-width="0.6" stroke-linecap="round" stroke-linejoin="round"/>
<path d="M313.764 196.254C319.955 198.315 314.141 220.125 306.606 220.125C299.07 220.125 306.982 193.993 313.764 196.254Z" fill="#519074"/>
<path d="M312.822 198.553C312.822 198.553 306.543 210.979 306.543 220.213V226.143" stroke="#110909" stroke-width="0.6" stroke-linecap="round" stroke-linejoin="round"/>
<path d="M303.554 245.667H285.972C284.466 245.585 283.045 244.941 281.992 243.861C280.938 242.782 280.328 241.345 280.283 239.837L279.027 224.924H310.575L309.319 239.837C309.272 241.358 308.652 242.805 307.583 243.886C306.513 244.968 305.074 245.604 303.554 245.667Z" fill="#A55A09"/>
<path d="M132.431 245.755H223.041V242.036H132.431V245.755Z" fill="#404360"/>
<path d="M216.272 242.036H220.567C220.567 241.813 220.478 241.598 220.321 241.441C220.163 241.283 219.949 241.194 219.726 241.194H217.214C216.99 241.194 216.774 241.282 216.614 241.44C216.455 241.597 216.363 241.811 216.36 242.036H216.272Z" fill="#4F5576"/>
<path d="M212.064 242.036H216.284C216.284 241.813 216.195 241.598 216.038 241.441C215.88 241.283 215.666 241.194 215.443 241.194H212.931C212.708 241.194 212.494 241.283 212.336 241.441C212.178 241.598 212.09 241.813 212.09 242.036H212.064Z" fill="#4F5576"/>
<path d="M207.845 242.036H212.077C212.077 241.813 211.988 241.598 211.831 241.441C211.673 241.283 211.459 241.194 211.236 241.194H208.724C208.5 241.194 208.284 241.282 208.124 241.44C207.965 241.597 207.873 241.811 207.87 242.036H207.845Z" fill="#4F5576"/>
<path d="M203.638 242.036H207.87C207.867 241.811 207.775 241.597 207.615 241.44C207.456 241.282 207.24 241.194 207.016 241.194H204.504C204.281 241.194 204.067 241.283 203.909 241.441C203.751 241.598 203.663 241.813 203.663 242.036H203.638Z" fill="#4F5576"/>
<path d="M199.418 242.036H203.65C203.65 241.813 203.562 241.598 203.404 241.441C203.246 241.283 203.032 241.194 202.809 241.194H200.297C200.073 241.194 199.857 241.282 199.698 241.44C199.538 241.597 199.446 241.811 199.443 242.036H199.418Z" fill="#4F5576"/>
<path d="M195.211 242.036H199.443C199.44 241.811 199.348 241.597 199.189 241.44C199.029 241.282 198.814 241.194 198.589 241.194H196.077C195.854 241.194 195.64 241.283 195.483 241.441C195.325 241.598 195.236 241.813 195.236 242.036H195.211Z" fill="#4F5576"/>
<path d="M191.004 242.036H195.224C195.224 241.813 195.135 241.598 194.977 241.441C194.819 241.283 194.605 241.194 194.382 241.194H191.87C191.647 241.194 191.433 241.283 191.275 241.441C191.118 241.598 191.029 241.813 191.029 242.036H191.004Z" fill="#4F5576"/>
<path d="M186.784 242.036H191.016C191.013 241.811 190.922 241.597 190.762 241.44C190.602 241.282 190.387 241.194 190.162 241.194H187.651C187.428 241.194 187.214 241.283 187.056 241.441C186.898 241.598 186.809 241.813 186.809 242.036H186.784Z" fill="#4F5576"/>
<path d="M182.577 242.036H186.797C186.797 241.813 186.708 241.598 186.55 241.441C186.393 241.283 186.179 241.194 185.955 241.194H183.444C183.221 241.194 183.007 241.283 182.849 241.441C182.691 241.598 182.602 241.813 182.602 242.036H182.577Z" fill="#4F5576"/>
<path d="M178.357 242.036H182.59C182.586 241.811 182.495 241.597 182.335 241.44C182.175 241.282 181.96 241.194 181.736 241.194H179.224C179.001 241.194 178.787 241.283 178.629 241.441C178.471 241.598 178.382 241.813 178.382 242.036H178.357Z" fill="#4F5576"/>
<path d="M174.1 242.036H178.32C178.32 241.813 178.231 241.598 178.073 241.441C177.916 241.283 177.702 241.194 177.478 241.194H174.967C174.743 241.194 174.529 241.283 174.372 241.441C174.214 241.598 174.125 241.813 174.125 242.036H174.1Z" fill="#4F5576"/>
<path d="M169.931 242.036H174.163C174.16 241.811 174.068 241.597 173.908 241.44C173.749 241.282 173.533 241.194 173.309 241.194H170.797C170.574 241.194 170.36 241.283 170.202 241.441C170.044 241.598 169.956 241.813 169.956 242.036H169.931Z" fill="#4F5576"/>
<path d="M165.724 242.036H169.943C169.943 241.813 169.855 241.598 169.697 241.441C169.539 241.283 169.325 241.194 169.102 241.194H166.59C166.367 241.194 166.153 241.283 165.995 241.441C165.837 241.598 165.749 241.813 165.749 242.036H165.724Z" fill="#4F5576"/>
<path d="M161.542 242.036H165.774C165.77 241.811 165.679 241.597 165.519 241.44C165.359 241.282 165.144 241.194 164.92 241.194H162.408C162.185 241.194 161.971 241.283 161.813 241.441C161.655 241.598 161.567 241.813 161.567 242.036H161.542Z" fill="#4F5576"/>
<path d="M154.069 242.036H158.289C158.289 241.813 158.2 241.598 158.042 241.441C157.884 241.283 157.67 241.194 157.447 241.194H154.935C154.712 241.194 154.498 241.283 154.34 241.441C154.183 241.598 154.094 241.813 154.094 242.036H154.069Z" fill="#4F5576"/>
<path d="M149.837 242.036H154.069C154.069 241.924 154.047 241.814 154.004 241.711C153.961 241.608 153.898 241.514 153.818 241.436C153.739 241.358 153.645 241.296 153.541 241.254C153.437 241.213 153.327 241.192 153.215 241.194H150.703C150.592 241.192 150.481 241.213 150.378 241.254C150.274 241.296 150.18 241.358 150.1 241.436C150.021 241.514 149.958 241.608 149.915 241.711C149.872 241.814 149.849 241.924 149.849 242.036H149.837Z" fill="#4F5576"/>
<path d="M145.617 242.036H149.837C149.837 241.813 149.748 241.598 149.59 241.441C149.433 241.283 149.219 241.194 148.995 241.194H146.484C146.261 241.194 146.047 241.283 145.889 241.441C145.731 241.598 145.642 241.813 145.642 242.036H145.617Z" fill="#4F5576"/>
<path d="M138.346 242.036H142.565C142.565 241.813 142.477 241.598 142.319 241.441C142.161 241.283 141.947 241.194 141.724 241.194H139.212C138.989 241.194 138.775 241.283 138.617 241.441C138.459 241.598 138.371 241.813 138.371 242.036H138.346Z" fill="#4F5576"/>
<path d="M134.113 242.036H138.346C138.346 241.813 138.257 241.598 138.099 241.441C137.941 241.283 137.727 241.194 137.504 241.194H134.992C134.881 241.192 134.77 241.213 134.667 241.254C134.563 241.296 134.469 241.358 134.389 241.436C134.31 241.514 134.247 241.608 134.204 241.711C134.161 241.814 134.138 241.924 134.138 242.036H134.113Z" fill="#4F5576"/>
<path d="M126.943 245.755H109.838C108.858 245.755 108.243 244.423 108.72 243.342C108.979 242.748 109.294 242.18 109.662 241.646C110.583 240.303 111.836 239.221 113.3 238.508C114.764 237.794 116.388 237.473 118.013 237.576C119.724 237.527 121.423 237.878 122.975 238.599C124.527 239.321 125.89 240.394 126.955 241.734C127.34 242.21 127.689 242.714 127.997 243.242C128.625 244.26 127.998 245.755 126.943 245.755Z" fill="#4F5576"/>
<path d="M126.943 245.755H109.838C108.858 245.755 108.243 244.423 108.72 243.342C108.979 242.748 109.294 242.18 109.662 241.646C110.656 241.082 111.778 240.786 112.921 240.786C114.063 240.786 115.186 241.082 116.18 241.646C119.395 243.656 127.734 244.536 126.955 241.709C127.34 242.185 127.689 242.689 127.997 243.217C128.625 244.26 127.998 245.755 126.943 245.755Z" fill="#404360"/>
<path d="M164.681 242.651H200.724V220.489H164.681V242.651Z" fill="#2A2E44"/>
<path d="M168.034 242.651H204.077V220.489H168.034V242.651Z" fill="#343852"/>
<path d="M168.034 231.57H204.077V220.489H168.034V231.57Z" fill="#2A2E44"/>
<path d="M137.065 228.09L231.87 224.472C233.346 224.467 234.774 223.941 235.901 222.988C237.029 222.034 237.785 220.714 238.036 219.258L251.009 168.627C251.649 164.858 250.055 159.531 240.636 159.531H143.645C142.167 159.537 140.738 160.064 139.61 161.02C138.482 161.976 137.728 163.3 137.479 164.758L128.688 217.185C127.42 223.417 133.197 228.09 137.065 228.09Z" fill="#343852"/>
<path d="M138.559 228.09H235.926C237.41 228.09 238.847 227.564 239.98 226.605C241.114 225.646 241.871 224.316 242.117 222.851L250.908 170.173C251.058 169.273 251.01 168.352 250.768 167.473C250.525 166.594 250.095 165.778 249.506 165.082C248.916 164.386 248.183 163.827 247.356 163.444C246.529 163.06 245.629 162.861 244.717 162.861H147.35C145.864 162.861 144.426 163.389 143.292 164.351C142.158 165.313 141.403 166.645 141.159 168.112L132.368 220.778C132.218 221.678 132.266 222.599 132.509 223.478C132.751 224.357 133.181 225.173 133.771 225.869C134.36 226.565 135.093 227.124 135.92 227.507C136.747 227.891 137.648 228.09 138.559 228.09Z" fill="#404360"/>
<path d="M132.368 220.992L141.159 168.426C141.442 166.827 142.345 165.405 143.671 164.469C143.457 171.038 144.274 177.601 146.095 183.917C150.208 195.797 157.248 206.448 166.565 214.886C173.907 221.256 182.652 225.798 192.084 228.141H138.559C137.655 228.167 136.756 227.992 135.927 227.628C135.098 227.264 134.361 226.72 133.768 226.036C133.176 225.351 132.743 224.544 132.5 223.672C132.258 222.799 132.213 221.884 132.368 220.992Z" fill="#4F5576"/>
<path d="M228.918 162.861L247.643 191.568L246.249 197.825L223.342 162.861H228.918Z" fill="#4F5576"/>
<path d="M214.802 162.861L244.491 208.441L242.507 220.213L204.643 162.861H214.802Z" fill="#4F5576"/>
<path d="M155.036 245.755H211.085C211.865 245.755 212.612 245.445 213.163 244.894C213.714 244.342 214.024 243.594 214.024 242.815C214.02 242.037 213.709 241.293 213.159 240.744C212.608 240.195 211.862 239.887 211.085 239.887H155.036C154.261 239.891 153.519 240.2 152.971 240.749C152.423 241.297 152.113 242.039 152.11 242.815C152.11 243.592 152.418 244.338 152.966 244.889C153.515 245.44 154.259 245.751 155.036 245.755Z" fill="#343852"/>
<path d="M161.391 245.755H211.864C213.057 245.755 214.024 244.787 214.024 243.594V242.048C214.024 240.855 213.057 239.887 211.864 239.887H161.391C160.198 239.887 159.231 240.855 159.231 242.048V243.594C159.231 244.787 160.198 245.755 161.391 245.755Z" fill="#404360"/>
</g>
<defs>
<clipPath id="clip0_715_11681">
<rect width="450" height="413" fill="white"/>
</clipPath>
</defs>
</svg>
