<?xml version="1.0" encoding="UTF-8"?>
<svg version="1.1" xmlns="http://www.w3.org/2000/svg" width="512" height="512">
<path d="M0 0 C6.19130797 4.50186599 10.47183459 8.85980724 12.6875 16.3125 C14.44599357 31.4355447 8.73394208 43.84249659 -0.5 55.5625 C-1.99432058 57.37968526 -3.49525604 59.19143652 -5 61 C-6.08033364 62.31696519 -7.15968488 63.63473661 -8.23828125 64.953125 C-13.66636267 71.57883193 -19.12598414 78.17333109 -24.6875 84.6875 C-28.36678584 88.99794081 -31.90374821 93.39564326 -35.375 97.875 C-39.82943924 103.61852331 -44.5092816 109.12732951 -49.29541016 114.59619141 C-54.8154473 120.90786818 -60.12411285 127.37993503 -65.33984375 133.9453125 C-72.77452269 143.22319803 -79.36205408 150.02879529 -91.73779297 151.42025757 C-96.22833984 151.68529768 -100.72166504 151.73754801 -105.21875 151.79296875 C-106.90787676 151.82763022 -108.59696954 151.86398349 -110.286026 151.9019165 C-113.85122853 151.97849552 -117.41637006 152.04345482 -120.98196411 152.09884644 C-126.51569486 152.18496711 -132.04864947 152.29861847 -137.58178711 152.41625977 C-151.79251182 152.71303448 -166.00410811 152.95454868 -180.21609497 153.18180847 C-184.14255818 153.24642857 -188.06883415 153.31950889 -191.99511719 153.39419556 C-194.48764699 153.43623744 -196.97988468 153.46069832 -199.47265625 153.4831543 C-209.59729643 153.60966633 -209.59729643 153.60966633 -219 157 C-219.66 157.99 -220.32 158.98 -221 160 C-220.566875 161.0209375 -220.566875 161.0209375 -220.125 162.0625 C-218.11303634 167.31596066 -218.08355001 172.74458087 -220.203125 177.9609375 C-222.18041274 181.30513285 -224.39034744 183.86924413 -227.0625 186.6875 C-228.04751633 187.73116591 -229.03187642 188.77545153 -230.015625 189.8203125 C-230.51255859 190.3452832 -231.00949219 190.87025391 -231.52148438 191.41113281 C-232.95766986 192.95451047 -234.35151507 194.52599277 -235.734375 196.1171875 C-236.58515625 197.08914063 -237.4359375 198.06109375 -238.3125 199.0625 C-239.07175781 199.94035156 -239.83101563 200.81820312 -240.61328125 201.72265625 C-244.966973 205.87683349 -249.02100894 207.42971486 -255 207.4375 C-255.99 207.45683594 -256.98 207.47617187 -258 207.49609375 C-264.20586459 206.46986354 -268.15603755 202.0611165 -272.375 197.6875 C-275.36679762 194.59421072 -278.36075859 191.65770594 -281.6328125 188.86328125 C-287.74929924 183.57336632 -293.33371856 177.72289219 -299.00927734 171.97021484 C-305.78314684 165.0655138 -305.78314684 165.0655138 -312.9375 158.5625 C-319.38073225 153.05766671 -325.20335153 146.84989699 -331.15478516 140.82470703 C-339.52865619 132.3424243 -339.52865619 132.3424243 -348.40869141 124.39697266 C-353.66944802 119.77867727 -356.68267302 115.22615762 -357.375 108.1875 C-357.00207534 98.12669193 -349.36147589 91.81114295 -342.625 85.25 C-341.69171875 84.31800781 -340.7584375 83.38601563 -339.796875 82.42578125 C-327.75291527 70.53535642 -327.75291527 70.53535642 -318.46484375 69.87890625 C-314.79487883 70.05920564 -312.29275609 71.41947708 -309 73 C-304.92408134 72.72883701 -302.78967115 70.22195421 -299.9375 67.5 C-295.32764762 63.17057122 -290.55959205 59.12825924 -285.625 55.16796875 C-283.11275887 53.09312674 -280.74921352 50.91744707 -278.375 48.6875 C-268.40903315 39.75372258 -257.5938507 39.85041113 -244.83544922 39.83886719 C-242.8608799 39.83141983 -242.8608799 39.83141983 -240.84642029 39.82382202 C-237.24896969 39.81076354 -233.6515377 39.80426569 -230.05406713 39.79981136 C-227.80041732 39.79686943 -225.54677245 39.79276252 -223.29312515 39.78830719 C-216.22434416 39.77464821 -209.15557465 39.76497429 -202.08678138 39.7611053 C-193.95991545 39.75663128 -185.83321827 39.73910724 -177.70640361 39.7101047 C-171.40292331 39.6883995 -165.09949017 39.6783963 -158.79597294 39.67706418 C-155.04137417 39.67602226 -151.28693436 39.67024683 -147.53237534 39.65224457 C-143.99461475 39.63561052 -140.45713001 39.63368149 -136.91934395 39.64238358 C-135.02417598 39.6435054 -133.12901652 39.6299063 -131.23390198 39.6156311 C-121.12752822 39.6641311 -110.74703951 40.7907291 -101.875 46 C-100.57175781 46.7425 -100.57175781 46.7425 -99.2421875 47.5 C-97.21886405 48.85358224 -95.63347392 50.20638158 -94 52 C-90.06785699 50.41060574 -87.66979654 47.83657498 -84.75 44.8125 C-80.94072006 40.91187346 -77.04167113 37.21478657 -72.89453125 33.67578125 C-70.134772 31.23467461 -67.58789024 28.597094 -65.00390625 25.97265625 C-62.41258017 23.42174071 -59.67648764 21.06949136 -56.9140625 18.70703125 C-55.10209455 17.09105167 -53.46798846 15.39873764 -51.8125 13.625 C-39.0354839 0.70212755 -17.69005155 -10.2595482 0 0 Z M-44.52197266 24.56640625 C-46.85744987 26.83167255 -49.27635704 29.00332685 -51.6875 31.1875 C-57.39239553 36.40024953 -63.03447625 41.6815393 -68.61816406 47.02392578 C-71.95563952 50.20545149 -75.29565686 53.29367787 -78.90625 56.1640625 C-84.95181983 61.05914207 -88.59746602 64.50777766 -89.5 72.6875 C-89.56832031 73.94949219 -89.63664063 75.21148437 -89.70703125 76.51171875 C-90.32725591 83.89652699 -94.70252381 89.45650602 -99.96484375 94.4296875 C-106.76725187 99.6783786 -113.86942626 102.14765852 -122.36132812 102.16113281 C-123.48129433 102.16858017 -123.48129433 102.16858017 -124.62388611 102.17617798 C-127.09301677 102.19078007 -129.56208326 102.19759711 -132.03125 102.203125 C-133.74613446 102.20887655 -135.4610189 102.21463429 -137.17590332 102.22039795 C-140.77042948 102.23090132 -144.36493331 102.23674883 -147.95947266 102.24023438 C-152.56990469 102.24572819 -157.18004274 102.26977776 -161.79038239 102.29820633 C-165.33165356 102.31680666 -168.87285341 102.32203683 -172.41416931 102.32357025 C-174.11426914 102.32660148 -175.81436757 102.33464581 -177.51441956 102.34775543 C-179.88940017 102.36476743 -182.26365544 102.3629483 -184.63867188 102.35644531 C-185.34317978 102.3656601 -186.04768768 102.37487488 -186.77354431 102.3843689 C-189.63484449 102.35976561 -191.56516396 102.29205345 -193.97570801 100.67303467 C-195 99 -195 99 -194.75 95.875 C-194 93 -194 93 -193 92 C-190.7218473 91.90214794 -188.44065347 91.87483602 -186.16040039 91.87402344 C-185.4447995 91.8721553 -184.72919861 91.87028717 -183.99191284 91.86836243 C-182.43135502 91.86434792 -180.87079129 91.86228263 -179.31022835 91.86190033 C-175.98375883 91.85848909 -172.65748548 91.83712122 -169.33108425 91.81666946 C-163.13500532 91.77867242 -156.93912854 91.74737313 -150.74291992 91.74951172 C-146.43614356 91.75030294 -142.13007555 91.72675251 -137.82348442 91.6876297 C-136.18783193 91.67722138 -134.55209713 91.67560731 -132.91642952 91.68328094 C-123.8717404 91.7214433 -115.53823804 91.73690171 -108 86 C-103.40258549 81.12354839 -100.3596075 76.29640211 -99.625 69.5625 C-100.08897888 65.15470067 -101.09419325 63.34167777 -104 60 C-110.13505129 55.27470517 -116.32024329 52.76357885 -124.12776184 52.71911621 C-125.33464157 52.70769592 -126.5415213 52.69627563 -127.78497314 52.68450928 C-129.75116608 52.6811557 -129.75116608 52.6811557 -131.75708008 52.67773438 C-133.16206884 52.66846795 -134.56705262 52.65841728 -135.97203064 52.64764404 C-139.77794159 52.62149149 -143.58378214 52.60852534 -147.38976884 52.59962273 C-149.77086398 52.59374671 -152.15194019 52.58553448 -154.53302574 52.57661438 C-161.99264233 52.54929165 -169.45221526 52.52994423 -176.91187841 52.5222106 C-185.50537197 52.51325081 -194.09822902 52.47815169 -202.6915291 52.42020941 C-209.34652584 52.37690307 -216.00134394 52.35679827 -222.65648001 52.35412836 C-226.62577224 52.3520377 -230.59446505 52.34034099 -234.56360817 52.30448914 C-238.29938356 52.27139885 -242.03411307 52.26727625 -245.76998329 52.28476715 C-247.78288033 52.28702864 -249.79574364 52.25969211 -251.80844116 52.23126221 C-259.91694083 52.30557475 -264.85001856 53.64614557 -271 59 C-271.95648438 59.81082031 -272.91296875 60.62164062 -273.8984375 61.45703125 C-274.71570313 62.23433594 -275.53296875 63.01164062 -276.375 63.8125 C-283.28719288 70.24899421 -290.62632092 76.10634253 -298 82 C-296.34395113 86.29505763 -293.10451694 89.16153042 -289.89794922 92.32910156 C-289.27342865 92.95391418 -288.64890808 93.57872681 -288.00546265 94.22247314 C-285.9432435 96.28330069 -283.8740341 98.33695653 -281.8046875 100.390625 C-280.37221453 101.81936725 -278.94018293 103.24855215 -277.50857544 104.67816162 C-273.74168516 108.43742017 -269.96882707 112.19063357 -266.19470215 115.94262695 C-262.34363269 119.77322817 -258.49822729 123.60950595 -254.65234375 127.4453125 C-247.10710066 134.96911378 -239.55554189 142.48654202 -232 150 C-229.84800881 148.92656359 -227.70103352 147.84620474 -225.5625 146.74609375 C-224.716875 146.31425781 -223.87125 145.88242187 -223 145.4375 C-221.7315625 144.78587891 -221.7315625 144.78587891 -220.4375 144.12109375 C-216.54593947 142.33122537 -213.17211676 141.86928745 -208.90325928 141.79277039 C-207.87438095 141.7719339 -206.84550262 141.75109741 -205.78544617 141.72962952 C-204.66225479 141.71145676 -203.53906342 141.693284 -202.38183594 141.67456055 C-201.19441299 141.65157898 -200.00699005 141.62859741 -198.78358459 141.60491943 C-196.20325799 141.55514273 -193.62289496 141.50722789 -191.04250336 141.46094322 C-186.95682344 141.38739314 -182.87138824 141.30378585 -178.78594971 141.2179718 C-177.38543338 141.18867289 -175.98491687 141.15938276 -174.58440018 141.1301012 C-173.53241873 141.10809837 -173.53241873 141.10809837 -172.45918512 141.08565104 C-162.95136091 140.88759716 -153.44344029 140.69786252 -143.93505859 140.52856445 C-137.51672963 140.41420499 -131.09882796 140.28617648 -124.6810801 140.14278251 C-121.28836901 140.06755212 -117.89584106 139.99930913 -114.50267792 139.94794273 C-110.71310136 139.88742524 -106.92472768 139.80320148 -103.13574219 139.71362305 C-101.46310051 139.69547295 -101.46310051 139.69547295 -99.75666809 139.67695618 C-91.81649001 139.45332167 -86.28028201 137.980757 -80.34765625 132.58984375 C-79.59355469 131.71457031 -78.83945312 130.83929688 -78.0625 129.9375 C-77.216875 128.96425781 -76.37125 127.99101562 -75.5 126.98828125 C-72.42250961 123.30971852 -69.36455245 119.61835472 -66.3515625 115.88671875 C-63.75552366 112.69988702 -61.10260087 109.56651399 -58.4375 106.4375 C-54.56426915 101.88380973 -50.79376414 97.26503823 -47.08203125 92.578125 C-44.66915824 89.59032727 -42.18200298 86.6694698 -39.6875 83.75 C-35.38180933 78.70597828 -31.25786155 73.54680677 -27.20043945 68.30175781 C-24.37896717 64.67994241 -21.45116517 61.18922494 -18.41357422 57.74707031 C-4.23423234 41.7969305 -4.23423234 41.7969305 0.96484375 21.75390625 C0.14444075 16.76547882 -2.36700647 14.20369033 -6.24609375 11.12890625 C-20.17141125 2.16583998 -35.02241598 15.25517358 -44.52197266 24.56640625 Z M-327.3984375 87.6015625 C-327.8782608 88.07564545 -328.35808411 88.54972839 -328.85244751 89.03817749 C-329.85970324 90.04136267 -330.85947108 91.05211592 -331.85205078 92.06982422 C-333.37074126 93.62065114 -334.91879552 95.13684996 -336.47265625 96.65234375 C-337.44984617 97.63349874 -338.42517308 98.61651346 -339.3984375 99.6015625 C-340.28192871 100.49182129 -341.16541992 101.38208008 -342.07568359 102.29931641 C-344.21329835 104.87859639 -344.21329835 104.87859639 -344.50244141 108.08374023 C-343.90850111 111.53107593 -343.06046514 112.65527617 -340.5625 115.05859375 C-339.83160156 115.77466797 -339.10070312 116.49074219 -338.34765625 117.22851562 C-337.18556641 118.32196289 -337.18556641 118.32196289 -336 119.4375 C-335.25621094 120.16259766 -334.51242187 120.88769531 -333.74609375 121.63476562 C-330.31243935 124.95794593 -326.81954514 128.18043444 -323.1875 131.28515625 C-316.93129243 136.69971808 -311.22708586 142.71811858 -305.41796875 148.60253906 C-298.4266609 155.7371227 -298.4266609 155.7371227 -291.04296875 162.45703125 C-285.12761928 167.50396033 -279.77311327 173.16012912 -274.3125 178.6875 C-272.10322092 180.9235312 -269.89053287 183.15610937 -267.67578125 185.38671875 C-267.17983963 185.89095871 -266.68389801 186.39519867 -266.17292786 186.91471863 C-261.05230336 192.47403831 -261.05230336 192.47403831 -254.4296875 195.46875 C-251.32388921 194.86956062 -250.26335588 193.80693996 -248.125 191.5 C-247.43921875 190.76910156 -246.7534375 190.03820312 -246.046875 189.28515625 C-245.37140625 188.53105469 -244.6959375 187.77695312 -244 187 C-243.38640625 186.31808594 -242.7728125 185.63617188 -242.140625 184.93359375 C-240.97442357 183.61516692 -239.82043571 182.28582307 -238.6796875 180.9453125 C-237.55201859 179.63931456 -236.38929093 178.36285331 -235.1953125 177.1171875 C-234.63585937 176.52164063 -234.07640625 175.92609375 -233.5 175.3125 C-232.9946875 174.79300781 -232.489375 174.27351563 -231.96875 173.73828125 C-230.77390164 171.98306445 -230.77390164 171.98306445 -231.23515034 169.62824726 C-232.10344592 166.64452956 -233.09372518 165.39950462 -235.2688446 163.20976257 C-235.96833725 162.49610031 -236.6678299 161.78243805 -237.38851929 161.04714966 C-238.16095978 160.279664 -238.93340027 159.51217834 -239.72924805 158.72143555 C-240.94396034 157.49139046 -240.94396034 157.49139046 -242.18321228 156.23649597 C-244.86575555 153.52612904 -247.56292915 150.83090263 -250.26171875 148.13671875 C-252.12966021 146.26100592 -253.99715207 144.38484526 -255.86421204 142.508255 C-259.78009715 138.57594945 -263.70502424 134.65282991 -267.63452148 130.73413086 C-272.17532992 126.20540912 -276.69746044 121.65862945 -281.2108838 117.10262841 C-285.55610347 112.71793341 -289.91786322 108.35006854 -294.28638649 103.98859596 C-296.14226394 102.13169003 -297.99340351 100.27003653 -299.8397274 98.40363121 C-302.42034967 95.79840016 -305.01924893 93.21289074 -307.6237793 90.6315918 C-308.38609863 89.85398499 -309.14841797 89.07637817 -309.93383789 88.27520752 C-314.00806888 84.18142989 -314.00806888 84.18142989 -319.35472107 82.40275574 C-323.05118823 83.23733457 -324.71984414 84.9433313 -327.3984375 87.6015625 Z " fill="#6639B7" transform="translate(428,264)"/>
<path d="M0 0 C14.92259303 10.59961344 25.63099792 25.69102874 28.8046875 43.9921875 C30.02263732 62.80213071 28.69272669 81.21846078 16.1484375 96.3359375 C4.62597886 109.44487945 4.62597886 109.44487945 -1.84643555 112.06567383 C-4.31588486 113.70354352 -4.31588486 113.70354352 -4.66885376 115.84237671 C-4.87350714 118.32405513 -4.91345512 120.76375108 -4.90234375 123.25390625 C-4.92502571 124.61259575 -4.92502571 124.61259575 -4.94816589 125.99873352 C-4.99116386 128.89263568 -4.99989242 131.78549726 -5.0078125 134.6796875 C-5.03094744 136.64130394 -5.05631068 138.60289546 -5.08398438 140.56445312 C-5.1511549 145.37426947 -5.17198887 150.18115854 -5.1953125 154.9921875 C2.0646875 154.9921875 9.3246875 154.9921875 16.8046875 154.9921875 C14.85764602 158.88627046 12.56424536 161.80977745 9.7421875 165.0546875 C8.73881266 166.22329707 7.73621893 167.39257772 6.734375 168.5625 C6.23647461 169.14290039 5.73857422 169.72330078 5.22558594 170.32128906 C3.23586734 172.66108873 1.30048153 175.04316703 -0.6328125 177.4296875 C-5.03919446 182.84144717 -9.57746636 188.13242262 -14.12890625 193.421875 C-17.14725485 196.93095733 -20.14401442 200.45792096 -23.1328125 203.9921875 C-23.56899902 204.50765137 -24.00518555 205.02311523 -24.45458984 205.55419922 C-27.38397429 209.02050588 -30.2930221 212.5032087 -33.1953125 215.9921875 C-41.23211512 209.35308969 -48.51563406 202.04287503 -55.28515625 194.12109375 C-57.6571953 191.47741015 -60.16792141 188.98555684 -62.6953125 186.4921875 C-66.40981669 182.82761783 -69.92591675 179.07004934 -73.30859375 175.09765625 C-76.58770816 171.43835467 -80.13193594 168.03857109 -83.64453125 164.60546875 C-90.1953125 157.89417831 -90.1953125 157.89417831 -90.1953125 154.9921875 C-81.9453125 154.9921875 -73.6953125 154.9921875 -65.1953125 154.9921875 C-65.0851544 149.55857527 -65.00917026 144.14584828 -65.01831055 138.71411133 C-65.01135842 136.87018122 -64.98492652 135.02621323 -64.93823242 133.18286133 C-64.2701827 122.5345667 -64.2701827 122.5345667 -68.52636719 113.34448242 C-71.34906332 111.57445843 -74.1204106 110.26158751 -77.1953125 108.9921875 C-91.28997962 98.39508593 -99.81040629 83.809257 -102.80078125 66.484375 C-104.7806414 48.95967232 -101.80353268 30.7492886 -90.94677734 16.33447266 C-68.4888457 -11.20548086 -30.67826856 -19.37137283 0 0 Z M-79.1953125 19.9921875 C-87.78242848 31.22275601 -93.74968043 45.60811606 -92.1953125 59.9921875 C-89.91729332 75.59374746 -83.69730241 89.41915907 -71.0703125 99.2421875 C-57.62018764 108.45359634 -41.24145328 111.84690789 -25.1953125 108.9921875 C-10.64570499 105.38472309 1.72485817 98.4052457 9.84179688 85.3203125 C17.68422232 71.6074448 20.09823948 57.21488228 16.6796875 41.6796875 C12.5596564 27.58384035 3.11870381 15.905457 -9.1953125 7.9921875 C-33.28624762 -5.13562642 -60.51222132 0.02169004 -79.1953125 19.9921875 Z M-23.3828125 119.9921875 C-33.55066187 122.09433818 -43.96698815 121.12866798 -54.1953125 119.9921875 C-54.1953125 135.5021875 -54.1953125 151.0121875 -54.1953125 166.9921875 C-57.4953125 166.9921875 -60.7953125 166.9921875 -64.1953125 166.9921875 C-55.71010031 177.12730206 -46.62921578 186.73854989 -37.1953125 195.9921875 C-36.19419331 196.99106705 -35.19375608 197.9906335 -34.1953125 198.9921875 C-28.34641422 192.67928476 -22.71174696 186.2839513 -17.3125 179.578125 C-14.77466608 176.47840903 -12.11703801 173.50318516 -9.41015625 170.55078125 C-7.99039204 169.05863685 -7.99039204 169.05863685 -8.1953125 166.9921875 C-10.8353125 166.9921875 -13.4753125 166.9921875 -16.1953125 166.9921875 C-16.1953125 151.1521875 -16.1953125 135.3121875 -16.1953125 118.9921875 C-18.91319707 118.9921875 -20.77891952 119.34681643 -23.3828125 119.9921875 Z " fill="#6639B7" transform="translate(297.1953125,56.0078125)"/>
<path d="M0 0 C3.00325487 3.00325487 2.30829724 6.36752614 2.31884766 10.39697266 C2.32889328 11.26533249 2.3389389 12.13369232 2.34928894 13.02836609 C2.38025142 15.90692464 2.39719222 18.78538965 2.4140625 21.6640625 C2.43276365 23.6566143 2.45233626 25.6491581 2.4727478 27.64169312 C2.52418628 32.89253022 2.56374917 38.14339304 2.60089111 43.39434814 C2.64085749 48.74994324 2.69198334 54.10543032 2.7421875 59.4609375 C2.83908543 69.97388258 2.92344567 80.48688849 3 91 C4.4451864 89.40164746 5.88932011 87.80234306 7.33300781 86.20263672 C8.53947968 84.86687088 8.53947968 84.86687088 9.77032471 83.50411987 C12.95308474 79.92960269 15.89927243 76.20573909 18.859375 72.4453125 C21.06859609 69.92164023 23.24748612 67.91557063 26 66 C29.42333251 66.15922477 30.5631237 66.5631237 33 69 C33.53662175 71.97738518 33.59457427 74.04013909 31.96679688 76.66796875 C30.46171779 78.5180941 28.8824066 80.261167 27.25 82 C26.05020896 83.32891062 24.85100327 84.65834993 23.65234375 85.98828125 C23.04116699 86.65682129 22.42999023 87.32536133 21.80029297 88.01416016 C19.07581357 91.01943754 16.4429133 94.09996166 13.8125 97.1875 C13.32587891 97.75549316 12.83925781 98.32348633 12.33789062 98.90869141 C7.50196963 104.55869147 2.74238351 110.2713686 -2 116 C-5.59721356 114.5045292 -7.63097221 112.47293692 -10.1875 109.5625 C-10.97511719 108.66660156 -11.76273438 107.77070313 -12.57421875 106.84765625 C-15.68915007 103.19099774 -18.71649667 99.46809835 -21.73828125 95.734375 C-25.9314961 90.66485791 -30.3838604 85.8135841 -34.86328125 80.99609375 C-37.10320719 78.52094886 -38.80565808 76.42959794 -40.1875 73.375 C-40 71 -40 71 -37.5625 68.1875 C-36.2940625 67.1046875 -36.2940625 67.1046875 -35 66 C-29.96304685 67.26824572 -27.79691428 68.87753738 -24.6875 73 C-20.90316007 77.87659424 -16.93224683 82.465878 -12.75 87.00390625 C-11 89 -11 89 -10 91 C-9.99413376 89.90419113 -9.98826752 88.80838226 -9.98222351 87.67936707 C-9.9250684 77.36413884 -9.85234479 67.0491229 -9.76428509 56.73411083 C-9.71951295 51.43074747 -9.680272 46.12746215 -9.65356445 40.82397461 C-9.62759966 35.70803787 -9.58724594 30.59240036 -9.53681374 25.47664833 C-9.52009873 23.52261381 -9.5086134 21.56852747 -9.50238609 19.61443138 C-9.49279525 16.88220042 -9.46479685 14.15074305 -9.43237305 11.41870117 C-9.43380814 10.60662201 -9.43524323 9.79454285 -9.4367218 8.95785522 C-9.34512634 3.51851949 -9.34512634 3.51851949 -7.66438293 0.99336243 C-5.07147355 -0.55417733 -2.94174235 -0.31295131 0 0 Z " fill="#6639B6" transform="translate(121,143)"/>
<path d="M0 0 C1.7325 0.1546875 1.7325 0.1546875 3.5 0.3125 C6.04009776 4.12264664 5.8069585 7.2213778 5.81884766 11.6394043 C5.82889328 12.48840302 5.8389389 13.33740173 5.84928894 14.21212769 C5.88019692 17.02031777 5.89717719 19.8284122 5.9140625 22.63671875 C5.93276803 24.58300097 5.95234097 26.52927503 5.9727478 28.47554016 C6.02414002 33.59977412 6.06372779 38.72403439 6.10089111 43.84838867 C6.14088634 49.07672676 6.1919991 54.30495471 6.2421875 59.53320312 C6.33903073 69.79289147 6.42340863 80.05264189 6.5 90.3125 C8.23610514 88.44414545 9.96858359 86.57262958 11.69921875 84.69921875 C12.1835437 84.17871948 12.66786865 83.65822021 13.16687012 83.12194824 C17.19468265 78.75328186 20.79750038 74.17332637 24.33203125 69.39453125 C27.04133527 66.79262307 28.78543787 66.43799196 32.5 66.3125 C34.9375 67.9375 34.9375 67.9375 36.5 70.3125 C36.20736986 74.77698547 34.34617978 77.1547505 31.5 80.5 C30.6853125 81.46292969 29.870625 82.42585938 29.03125 83.41796875 C25.97884114 86.90845481 22.87699168 90.35009695 19.75390625 93.77734375 C16.62467719 97.29704854 13.68061311 100.956575 10.71875 104.6171875 C7.4257499 108.61748692 3.97871594 112.47359003 0.5 116.3125 C-4.84453726 112.10509833 -8.94414839 107.48424609 -13.1796875 102.171875 C-15.37469854 99.4669119 -17.6502746 96.88327971 -20 94.3125 C-24.7057274 89.14445552 -29.14912303 83.78167467 -33.5 78.3125 C-34.07234375 77.59964844 -34.6446875 76.88679688 -35.234375 76.15234375 C-36.92436298 73.69560196 -36.94936619 72.23338024 -36.5 69.3125 C-35.4375 67.4375 -35.4375 67.4375 -33.5 66.3125 C-29.41889962 66.4601244 -27.21250883 66.65599103 -24.1640625 69.46484375 C-23.15472656 70.84349609 -23.15472656 70.84349609 -22.125 72.25 C-18.4081879 77.13987116 -14.50617992 81.70084774 -10.34765625 86.21875 C-8.5 88.3125 -8.5 88.3125 -6.5 91.3125 C-6.49191315 90.20194244 -6.48382629 89.09138489 -6.47549438 87.94717407 C-6.39812833 77.49923054 -6.31041352 67.05141876 -6.21247292 56.60364723 C-6.16245153 51.23188502 -6.11612216 45.86014304 -6.078125 40.48828125 C-6.04134582 35.30756884 -5.99500629 30.12702335 -5.94193649 24.94645309 C-5.92335325 22.96646416 -5.90825995 20.98643939 -5.89665604 19.00639725 C-5.87986059 16.24058051 -5.8508424 13.47514934 -5.81884766 10.70947266 C-5.81668747 9.88444748 -5.81452728 9.0594223 -5.81230164 8.20939636 C-5.69792554 0.50874335 -5.69792554 0.50874335 0 0 Z " fill="#673AB6" transform="translate(399.5,86.6875)"/>
<path d="M0 0 C1.98 0 3.96 0 6 0 C6 2.64 6 5.28 6 8 C6.86625 8.020625 7.7325 8.04125 8.625 8.0625 C12.69054089 9.19181691 14.22811748 10.63815146 16.80859375 13.87890625 C18.85296288 17.51855358 18.8728465 20.86751117 19 25 C15.7 25 12.4 25 9 25 C8.731875 23.88625 8.46375 22.7725 8.1875 21.625 C7.34190981 17.78159049 7.34190981 17.78159049 4 16 C0.36060068 16.31730524 0.36060068 16.31730524 -3 17 C-3.5544887 21.05787829 -3.5544887 21.05787829 -3 25 C-0.07891921 28.00089175 3.84276813 29.48356369 7.6171875 31.16796875 C15.31702763 34.69801415 15.31702763 34.69801415 17.625 38.25 C19.26728266 42.72895272 19.84886999 46.29263004 19 51 C16.77961286 55.44077427 14.50461946 57.91249342 10 60 C7.1875 60.6875 7.1875 60.6875 5 61 C5 63.31 5 65.62 5 68 C3.02 68 1.04 68 -1 68 C-1.33 65.69 -1.66 63.38 -2 61 C-3.85625 60.38125 -3.85625 60.38125 -5.75 59.75 C-9.37407986 58.34775002 -11.7833175 57.32502375 -14 54 C-14.91274951 50.66898886 -15.45942671 47.42363087 -16 44 C-12.7 44 -9.4 44 -6 44 C-5.319375 45.7015625 -5.319375 45.7015625 -4.625 47.4375 C-3.42904194 51.04721692 -3.42904194 51.04721692 -1 52 C3.05142119 52.25860135 4.54337669 52.30441554 8 50 C9.0146239 48.1935345 9.0146239 48.1935345 9 46 C6.75761691 40.61474927 3.03748086 39.17389053 -2 36.9375 C-10.98698441 32.89975344 -10.98698441 32.89975344 -13 29 C-14.41844844 24.00570249 -14.55948366 19.34580482 -12.4375 14.5625 C-10.30914951 10.91705539 -8.05394466 9.35131489 -4 8 C-2.68 8 -1.36 8 0 8 C0 5.36 0 2.72 0 0 Z " fill="#6639B7" transform="translate(257,78)"/>
</svg>
